<?xml version="1.0" encoding="UTF-8" ?>
<!DOCTYPE svg PUBLIC "-//W3C//DTD SVG 1.1//EN" "http://www.w3.org/Graphics/SVG/1.1/DTD/svg11.dtd">
<svg width="425pt" height="425pt" viewBox="0 0 425 425" version="1.1" xmlns="http://www.w3.org/2000/svg">
<path fill="#ffffff" d=" M 0.00 0.00 L 425.00 0.00 L 425.00 425.00 L 0.00 425.00 L 0.00 0.00 Z" />
<path fill="#aaaaaa" d=" M 212.45 60.76 C 214.92 75.43 216.63 90.23 218.80 104.95 C 218.77 108.38 222.32 109.78 224.65 111.54 C 228.04 112.29 231.52 112.59 234.93 113.22 C 232.93 117.01 228.60 116.26 225.24 115.10 C 223.31 121.20 222.68 127.62 221.12 133.82 C 225.38 134.54 229.63 135.25 233.84 136.22 C 233.40 136.70 232.51 137.68 232.07 138.16 C 228.38 137.52 224.74 136.65 221.02 136.21 L 220.45 136.99 L 220.84 137.70 C 227.77 138.41 234.58 140.16 241.03 142.80 C 243.80 143.87 246.32 145.55 249.24 146.22 C 248.57 144.37 246.59 143.82 245.00 143.04 C 240.96 141.25 236.87 139.49 232.53 138.61 C 232.90 138.13 233.64 137.17 234.02 136.69 C 240.02 137.50 245.20 141.07 250.84 142.92 C 253.17 140.75 254.20 137.41 256.99 135.71 C 256.24 138.26 255.35 140.76 254.58 143.30 C 254.23 142.99 253.54 142.38 253.20 142.07 C 245.94 151.92 238.79 161.86 231.74 171.85 C 212.36 172.99 193.81 184.90 185.88 202.80 C 183.99 205.99 185.82 209.66 186.27 213.00 L 186.93 212.98 C 186.48 204.52 191.34 196.96 196.79 190.93 C 203.24 183.83 211.82 178.80 221.04 176.26 C 223.00 175.61 225.65 175.89 226.85 177.77 C 221.43 178.40 215.77 179.84 211.33 183.11 C 214.54 183.70 217.81 183.74 221.05 184.14 C 235.75 186.37 249.31 195.10 257.49 207.50 C 259.96 208.41 262.76 208.09 265.37 208.45 C 262.29 198.42 257.10 189.19 251.61 180.30 C 245.36 178.04 238.74 176.58 232.06 177.03 C 229.75 176.88 226.43 177.58 225.16 175.05 C 231.03 174.96 236.90 175.02 242.77 174.95 L 242.93 172.40 C 243.73 173.35 244.61 174.48 244.18 175.85 C 245.69 176.05 247.20 176.24 248.72 176.43 C 247.81 175.21 246.81 174.08 245.69 173.05 C 246.13 172.56 246.57 172.08 247.02 171.61 C 248.65 174.69 250.91 177.35 252.82 180.25 C 258.13 188.35 262.60 197.01 265.87 206.13 C 266.26 207.40 266.98 208.51 267.95 209.42 C 267.86 208.54 267.68 206.78 267.59 205.91 C 269.81 206.17 268.93 203.46 268.64 202.28 C 267.12 198.23 265.03 194.41 263.52 190.34 C 266.98 192.94 267.66 197.89 269.47 201.67 C 271.60 194.00 272.21 185.97 272.13 178.04 C 271.33 175.39 269.42 173.27 267.86 171.03 C 262.97 164.76 257.25 158.96 250.43 154.80 C 249.46 158.09 248.33 161.32 247.16 164.54 C 253.85 172.55 260.19 181.09 264.41 190.69 C 262.75 190.37 262.39 188.55 261.58 187.35 C 258.33 181.22 254.35 175.49 250.18 169.95 C 249.11 168.50 247.78 167.25 246.29 166.25 C 247.05 169.22 249.82 171.08 250.94 173.91 C 248.81 172.86 247.59 170.75 245.97 169.13 C 245.88 170.67 244.75 171.75 243.57 172.53 C 244.52 167.84 246.50 163.45 247.96 158.90 C 249.90 153.65 251.30 148.19 253.61 143.09 C 253.83 143.67 254.27 144.84 254.49 145.42 C 260.49 149.40 266.05 153.99 271.05 159.18 C 270.54 156.28 269.98 153.39 269.59 150.48 L 270.83 150.60 C 271.78 158.38 273.62 166.11 272.98 174.00 C 273.72 185.85 272.20 197.73 269.05 209.16 C 269.44 209.07 270.22 208.88 270.62 208.78 C 271.94 203.96 272.83 199.02 273.63 194.09 C 274.23 190.79 273.64 187.21 275.23 184.15 L 275.48 183.55 C 275.63 192.32 273.33 200.82 271.98 209.41 C 272.87 208.75 273.44 207.90 273.72 206.87 C 277.34 192.41 277.91 177.34 276.51 162.56 C 275.58 153.24 272.95 144.24 270.59 135.22 C 272.46 136.51 272.51 139.04 273.26 141.00 C 275.99 149.99 277.22 159.35 278.41 168.61 C 282.67 175.67 286.56 183.07 288.53 191.14 C 287.98 191.44 286.89 192.04 286.35 192.34 C 284.75 185.73 282.07 179.32 278.43 173.57 C 277.53 175.01 278.68 176.41 279.24 177.72 C 283.94 186.47 286.75 196.24 287.47 206.15 C 287.79 207.88 287.49 209.99 288.87 211.34 C 289.53 205.82 288.27 200.35 287.20 194.97 C 286.49 193.39 287.36 191.91 288.75 191.13 C 290.65 197.69 290.83 204.50 291.78 211.19 C 294.92 211.78 298.13 211.94 301.31 212.21 C 298.68 213.96 295.43 213.78 292.50 214.59 C 290.90 215.45 291.23 217.46 291.10 218.97 C 291.07 224.87 289.57 230.62 288.05 236.28 C 296.51 230.29 303.39 222.32 309.83 214.27 C 310.08 214.25 310.56 214.19 310.80 214.17 C 310.73 214.43 310.58 214.97 310.51 215.23 C 303.44 224.50 295.22 232.92 285.75 239.76 C 284.28 240.89 282.48 241.80 281.72 243.59 C 283.51 242.90 285.23 242.03 286.96 241.18 C 286.37 241.81 285.17 243.05 284.57 243.67 C 284.88 243.85 285.50 244.21 285.81 244.40 C 293.71 239.22 300.44 232.48 306.85 225.60 C 307.14 225.46 307.72 225.18 308.00 225.04 C 307.96 225.37 307.87 226.03 307.83 226.36 C 303.12 231.79 297.77 236.64 292.19 241.16 C 290.79 242.41 288.81 243.25 287.96 244.98 C 288.72 246.12 290.39 246.02 291.55 246.58 C 295.89 247.59 299.87 250.48 304.49 249.73 C 304.26 248.60 304.05 247.47 303.88 246.34 C 305.36 247.21 307.83 248.56 306.66 250.64 C 305.42 253.62 306.33 256.81 307.25 259.74 C 316.91 267.03 326.37 274.58 335.96 281.96 C 338.50 284.02 341.30 285.82 343.45 288.32 C 342.75 288.14 341.34 287.76 340.63 287.58 C 327.12 282.04 313.58 276.59 300.06 271.07 C 297.62 272.23 294.60 272.64 292.84 274.89 C 285.96 283.64 277.82 291.59 268.28 297.42 C 269.01 298.09 269.88 298.71 270.23 299.70 C 275.93 313.39 281.57 327.11 287.30 340.80 C 287.80 341.77 287.87 342.86 287.72 343.94 C 277.74 330.55 267.12 317.64 257.45 304.04 C 251.07 306.73 244.67 309.49 237.91 311.07 C 236.07 311.33 234.88 309.55 233.95 308.27 C 238.55 307.42 242.97 305.86 247.38 304.33 C 248.58 303.99 249.55 303.22 250.43 302.37 C 246.64 301.94 242.97 300.83 239.22 300.17 C 239.13 299.79 238.94 299.02 238.85 298.63 C 245.38 300.72 252.18 301.63 258.87 302.98 C 259.26 304.41 259.79 305.84 260.78 306.99 C 267.52 315.57 274.09 324.29 280.74 332.94 C 281.63 334.10 282.65 335.13 283.81 336.05 C 279.26 323.61 273.73 311.54 268.83 299.24 C 255.67 299.63 242.75 296.09 230.41 291.85 L 230.55 290.77 C 240.16 294.01 249.97 296.75 260.06 297.97 C 261.34 297.88 262.37 297.02 263.46 296.43 C 273.72 290.00 283.11 281.90 290.23 272.07 C 285.43 268.15 281.14 263.32 275.98 260.03 C 269.54 267.96 262.18 275.43 253.15 280.40 C 254.49 283.58 256.31 286.59 257.00 290.01 C 254.57 287.58 252.38 284.94 250.04 282.43 C 244.56 285.13 238.93 287.61 232.97 289.07 C 231.53 289.21 230.47 290.13 229.84 291.40 C 214.72 285.83 201.03 276.76 189.28 265.81 C 188.44 264.99 187.51 264.32 186.46 263.80 C 187.39 265.41 188.46 266.93 189.49 268.49 C 187.95 267.54 186.42 266.60 184.83 265.77 C 185.39 268.93 188.78 270.07 190.76 272.21 C 197.16 278.39 204.99 282.77 212.17 287.87 C 199.51 288.46 187.04 284.47 175.81 278.87 C 176.29 282.17 180.91 281.65 182.77 284.01 C 179.91 286.47 176.82 282.88 173.99 282.01 C 171.96 284.65 170.13 287.43 168.04 290.03 C 168.19 286.58 169.85 283.46 170.86 280.22 C 164.71 276.28 159.22 271.45 153.91 266.47 C 155.07 275.87 157.83 285.02 161.24 293.83 C 161.92 295.33 162.38 297.17 163.96 297.99 C 168.34 300.46 172.90 302.66 177.66 304.30 C 176.92 305.39 176.24 306.68 174.91 307.15 C 172.33 306.34 169.94 305.06 167.47 303.97 C 158.48 316.31 148.91 328.23 139.73 340.44 C 138.85 341.65 137.87 342.81 136.62 343.67 C 137.84 338.95 140.39 334.72 141.69 330.02 C 142.11 330.02 142.94 330.02 143.36 330.02 C 142.26 332.09 141.32 334.26 140.76 336.55 C 144.61 332.76 147.49 328.14 150.88 323.96 C 155.66 317.49 160.88 311.33 165.47 304.73 C 165.07 304.34 164.26 303.55 163.86 303.15 L 163.32 304.76 L 163.13 304.44 C 162.76 303.79 162.39 303.15 162.03 302.52 L 163.90 302.72 C 157.06 288.33 152.62 272.71 151.72 256.77 C 151.37 257.21 150.68 258.10 150.34 258.54 C 151.28 270.60 154.36 282.37 158.32 293.76 L 157.23 293.20 C 152.95 282.82 150.66 271.68 149.45 260.56 C 149.08 260.27 148.35 259.68 147.99 259.38 C 148.45 267.14 150.17 274.76 152.02 282.28 C 151.97 282.68 151.86 283.46 151.81 283.86 C 151.65 283.74 151.33 283.51 151.17 283.40 C 149.05 276.15 148.14 268.66 146.73 261.27 C 145.72 262.18 144.81 263.19 144.02 264.30 C 143.55 263.86 143.09 263.42 142.63 262.98 C 146.25 260.13 150.16 257.42 152.90 253.67 C 154.11 254.51 154.95 255.70 155.42 257.10 C 154.73 256.81 153.34 256.21 152.65 255.92 C 153.42 257.92 154.86 259.63 155.33 261.77 C 154.66 261.29 153.34 260.34 152.67 259.86 C 154.23 263.50 157.18 266.24 160.04 268.87 C 163.86 272.23 167.70 275.70 172.33 277.92 C 171.25 275.85 169.33 274.48 167.46 273.18 C 169.61 272.86 171.15 274.88 173.22 275.15 C 172.26 273.89 171.21 272.68 170.19 271.48 C 171.11 271.75 172.96 272.28 173.89 272.55 C 173.09 270.68 170.67 270.13 170.05 268.19 C 171.56 268.85 173.07 269.55 174.64 270.09 C 175.00 268.41 175.36 266.73 175.67 265.04 C 176.10 265.02 176.96 264.99 177.39 264.97 C 175.29 270.83 172.99 276.66 171.50 282.71 C 174.02 280.46 175.68 277.50 177.69 274.83 C 182.86 267.60 188.10 260.41 193.24 253.15 C 213.23 252.49 232.17 239.24 239.61 220.67 C 240.20 218.18 238.32 215.53 239.23 213.08 L 239.69 213.09 C 241.93 221.11 241.37 229.71 239.77 237.80 C 235.35 234.98 240.36 229.47 238.69 225.50 C 230.17 241.94 212.75 253.10 194.30 254.28 C 192.15 255.96 190.95 258.57 189.43 260.79 C 199.50 262.69 209.73 263.40 219.97 262.95 C 228.87 256.86 234.97 246.88 237.41 236.44 C 237.89 236.82 238.85 237.57 239.33 237.95 C 238.15 245.09 234.20 251.46 229.85 257.12 C 235.12 263.71 240.94 269.84 246.35 276.30 C 246.21 276.84 245.92 277.91 245.77 278.44 C 243.99 278.18 242.43 279.15 240.85 279.79 C 234.00 282.83 226.61 284.44 219.19 285.32 C 220.92 286.58 223.16 286.05 225.13 285.91 C 229.85 285.18 234.34 283.49 238.97 282.37 C 238.17 283.90 236.40 284.18 234.94 284.69 C 231.03 285.78 227.10 286.82 223.07 287.36 C 225.11 288.55 227.56 288.00 229.73 287.54 C 236.06 285.90 242.30 283.77 248.07 280.66 C 247.64 280.30 246.80 279.59 246.38 279.23 C 246.95 278.65 247.53 278.08 248.11 277.52 C 249.13 279.71 250.77 281.52 252.75 282.91 C 249.71 274.89 245.86 267.20 242.36 259.38 C 242.89 259.17 243.93 258.74 244.46 258.53 C 245.26 257.30 246.02 255.72 247.76 255.68 C 247.47 256.34 246.90 257.65 246.62 258.30 C 247.87 257.35 249.16 256.45 250.35 255.41 C 251.71 255.71 253.14 256.15 254.47 255.46 C 258.36 254.05 262.10 252.25 265.92 250.67 C 263.68 248.63 261.38 246.65 259.04 244.73 C 256.17 248.29 254.53 253.17 250.35 255.41 C 252.83 251.09 256.67 247.55 258.16 242.69 C 256.49 244.18 255.04 245.89 253.75 247.72 C 253.68 245.36 255.58 243.58 256.21 241.41 C 254.01 242.00 253.38 244.44 252.10 246.05 C 248.96 250.43 245.96 255.03 241.79 258.52 C 240.69 255.37 239.26 252.35 237.97 249.28 C 247.27 231.83 245.42 209.21 233.34 193.55 C 232.10 191.66 229.59 191.46 227.62 190.98 C 228.14 190.52 228.68 190.07 229.23 189.64 C 233.17 191.75 237.38 193.37 241.03 196.00 C 249.34 201.89 256.23 210.10 259.54 219.82 C 270.13 218.03 280.60 215.65 291.18 213.79 C 292.08 213.63 292.77 213.13 293.27 212.31 C 281.20 211.58 269.22 209.89 257.18 208.93 C 249.21 196.97 236.60 188.07 222.38 185.47 C 216.51 184.60 210.40 183.79 204.60 185.47 C 202.61 186.78 200.91 188.47 199.41 190.31 C 202.38 189.37 207.45 185.86 209.38 189.86 C 208.82 189.89 207.71 189.95 207.16 189.98 C 206.59 190.21 205.45 190.67 204.88 190.90 L 203.58 191.56 C 203.53 191.59 203.44 191.65 203.39 191.68 C 202.45 192.55 201.79 193.61 201.40 194.87 L 200.76 194.71 C 200.59 194.67 200.26 194.60 200.10 194.56 L 199.22 194.38 L 198.53 194.21 L 198.11 194.62 C 195.96 196.58 194.37 199.04 192.73 201.43 L 192.60 201.62 L 192.43 201.95 L 191.86 203.07 C 191.73 203.29 191.49 203.74 191.37 203.96 L 190.85 204.96 L 190.47 205.40 L 190.42 205.86 C 190.30 206.62 190.07 208.12 189.95 208.88 C 188.54 209.48 188.51 210.13 189.87 210.82 C 190.26 211.11 191.05 211.70 191.44 211.99 C 191.28 212.44 190.95 213.35 190.79 213.81 L 190.06 214.51 C 190.04 216.08 190.15 217.65 190.35 219.21 L 190.38 219.60 L 190.65 219.91 C 191.54 221.72 192.47 223.52 193.43 225.30 L 193.55 225.53 L 193.71 225.72 C 195.18 227.60 196.84 229.33 198.67 230.87 C 199.08 231.23 199.92 231.95 200.33 232.31 C 200.02 232.78 199.38 233.71 199.06 234.18 C 193.02 231.23 189.65 224.88 187.10 218.94 C 181.52 204.67 182.57 187.75 190.44 174.52 C 191.75 172.27 193.43 170.27 194.78 168.05 C 187.34 159.06 179.67 150.19 171.73 141.64 C 174.11 148.73 177.88 155.26 180.61 162.21 C 179.03 162.14 177.41 162.04 175.90 162.60 C 155.68 168.84 136.83 179.89 122.12 195.18 C 117.86 199.13 114.47 203.87 110.55 208.11 C 110.14 207.84 109.32 207.29 108.91 207.02 C 95.11 208.74 81.36 211.00 67.50 212.25 C 71.49 213.65 75.76 213.68 79.89 214.37 C 89.62 215.47 99.32 217.31 109.07 217.95 C 114.75 207.94 122.84 199.55 131.01 191.55 C 131.03 192.04 131.08 193.01 131.10 193.50 C 124.78 199.03 119.13 205.35 114.17 212.12 C 113.91 217.41 115.17 222.65 115.14 227.94 C 114.32 229.32 113.44 230.69 112.24 231.78 C 111.92 227.46 110.91 223.21 110.91 218.87 C 108.28 219.17 105.63 219.06 103.04 218.53 C 92.08 217.05 81.11 215.64 70.15 214.18 C 66.99 213.69 63.64 213.75 60.71 212.32 C 77.43 210.26 94.11 207.62 110.87 205.92 C 111.01 201.67 111.94 197.51 112.28 193.27 C 113.30 194.44 114.23 195.69 115.03 197.02 C 115.05 197.97 115.10 199.88 115.13 200.83 C 122.67 192.09 131.44 184.49 140.89 177.88 C 147.55 165.55 156.68 154.35 168.54 146.67 C 169.39 145.84 171.10 145.53 171.19 144.14 C 170.19 141.26 168.60 138.62 167.75 135.68 C 170.66 137.42 172.25 140.59 174.64 142.92 C 180.99 139.69 187.62 136.82 194.66 135.53 C 193.86 134.74 192.93 134.17 191.87 133.82 C 185.99 131.63 179.92 130.02 173.76 128.83 C 173.57 128.65 173.19 128.30 173.00 128.12 C 174.54 127.70 176.11 128.12 177.63 128.45 C 186.76 130.57 195.70 133.62 204.10 137.78 C 203.69 134.24 198.56 135.12 197.03 132.25 C 199.31 132.96 201.56 133.75 203.86 134.36 C 203.12 133.24 202.12 132.44 200.88 131.98 C 192.19 128.38 183.19 125.39 173.91 123.75 C 173.56 123.53 172.87 123.09 172.52 122.87 C 172.47 122.83 172.38 122.75 172.34 122.72 L 172.23 122.75 C 170.30 123.26 168.15 123.23 166.31 122.43 C 164.57 118.82 162.01 115.75 159.59 112.60 C 153.15 104.64 147.43 96.09 140.64 88.43 C 145.22 100.93 150.71 113.10 155.71 125.45 C 159.09 126.56 163.07 125.47 166.61 126.50 C 168.33 127.17 171.08 126.11 172.11 127.90 C 169.01 128.99 165.32 126.16 162.36 128.19 C 137.84 142.74 119.79 168.38 115.70 196.73 C 114.12 194.88 112.16 192.56 113.16 189.95 C 115.32 180.82 118.64 171.97 123.11 163.71 C 120.53 163.89 117.92 163.77 115.39 164.30 C 113.00 165.40 110.62 169.87 107.92 167.12 C 87.14 150.82 66.32 134.57 45.50 118.32 C 42.88 116.24 40.11 114.32 37.80 111.88 C 39.41 112.24 41.01 112.70 42.53 113.35 C 69.34 124.38 96.37 134.89 123.11 146.06 C 122.61 148.78 121.24 151.75 122.62 154.42 C 123.44 156.33 124.46 158.15 125.46 159.98 C 132.60 147.76 142.59 137.13 154.30 129.20 C 154.57 129.23 155.12 129.29 155.39 129.32 C 155.78 128.69 156.17 128.07 156.56 127.44 C 155.52 127.19 154.83 126.56 154.50 125.55 C 149.51 113.49 144.53 101.42 139.53 89.36 C 138.47 86.83 137.17 84.36 136.70 81.62 C 139.53 83.97 141.35 87.22 143.68 90.01 C 151.58 100.41 159.67 110.67 167.47 121.15 C 170.26 120.03 172.97 118.73 175.83 117.79 C 176.78 118.59 177.73 119.39 178.69 120.19 C 177.01 121.02 175.34 121.85 173.67 122.68 C 183.87 124.15 193.54 127.80 203.08 131.53 C 201.97 126.03 201.02 120.50 199.66 115.06 C 196.48 116.05 191.45 117.25 189.98 113.18 C 192.28 112.83 194.59 112.47 196.90 112.14 C 200.54 112.14 203.44 109.47 205.64 106.88 C 208.13 91.54 209.47 76.00 212.45 60.76 Z" />
<path fill="#ffffff" d=" M 212.53 67.60 C 214.31 80.72 216.13 93.85 218.00 106.96 C 216.63 109.03 214.27 110.22 212.49 111.93 C 210.64 110.54 208.82 109.10 207.00 107.68 C 207.23 100.70 208.80 93.84 209.55 86.91 C 210.54 80.47 211.07 73.96 212.53 67.60 Z" />
<path fill="#aaaaaa" d=" M 285.67 84.00 C 286.38 83.03 287.23 82.20 288.22 81.50 C 282.37 97.20 275.41 112.50 269.20 128.06 C 273.07 131.11 277.14 133.94 280.80 137.26 C 288.19 143.85 294.28 151.76 299.59 160.08 C 300.54 157.61 301.80 155.26 302.68 152.75 C 302.59 150.44 302.06 148.17 301.83 145.87 C 328.88 134.88 355.99 124.02 383.03 113.02 C 384.30 112.46 385.67 112.15 387.06 112.04 C 363.69 130.64 340.00 148.85 316.53 167.33 C 314.91 169.31 313.07 166.96 311.50 166.27 C 311.98 165.75 312.47 165.23 312.97 164.73 C 313.48 165.30 314.48 166.45 314.99 167.02 C 335.01 151.46 354.95 135.79 374.95 120.18 C 376.68 118.87 378.52 117.63 379.83 115.86 C 376.51 116.60 373.50 118.23 370.34 119.42 C 347.87 128.34 325.57 137.72 303.02 146.41 C 303.18 148.29 303.47 150.16 303.95 151.99 C 318.10 146.52 331.99 140.34 346.26 135.22 C 345.02 136.98 343.23 138.20 341.54 139.47 C 332.15 146.84 322.74 154.17 313.34 161.52 C 313.03 161.61 312.41 161.79 312.10 161.88 C 312.17 161.61 312.32 161.07 312.39 160.80 C 320.32 154.62 328.22 148.37 336.20 142.24 C 337.27 141.43 338.19 140.46 338.96 139.35 C 327.05 143.74 315.30 148.60 303.61 153.53 C 302.41 156.36 301.14 159.16 299.91 161.98 C 303.57 162.66 307.40 163.55 311.07 162.37 C 311.04 163.45 311.00 164.53 310.96 165.61 C 308.61 162.97 304.83 164.25 301.75 163.78 C 303.70 167.80 305.72 171.79 307.32 175.98 C 306.41 176.99 305.48 177.98 304.30 178.68 C 298.23 161.01 286.23 145.77 271.62 134.31 C 271.27 134.60 270.59 135.18 270.24 135.47 C 269.33 132.71 268.27 130.00 267.27 127.27 C 270.02 124.65 270.84 120.82 272.34 117.48 C 276.18 107.79 280.63 98.33 284.11 88.52 C 278.02 95.08 273.14 102.68 267.47 109.60 C 264.10 113.52 261.64 118.34 257.52 121.53 C 258.50 119.02 260.32 117.03 261.95 114.95 C 269.83 104.62 277.77 94.32 285.67 84.00 Z" />
<path fill="#000000" d=" M 148.10 101.09 C 152.94 107.90 158.31 114.30 163.21 121.05 C 162.58 123.76 160.26 124.51 157.71 124.43 C 154.43 116.68 151.17 108.93 148.10 101.09 Z" />
<path fill="#000000" d=" M 261.52 120.96 C 266.63 114.28 271.80 107.64 276.89 100.94 C 273.44 108.62 270.56 116.55 267.07 124.20 C 266.36 124.18 264.94 124.12 264.23 124.10 C 265.82 129.17 268.14 133.97 269.70 139.04 C 274.07 153.41 276.34 168.55 275.48 183.55 L 275.23 184.15 C 275.98 169.16 273.84 154.12 269.54 139.76 C 267.37 133.30 265.06 126.82 261.52 120.96 Z" />
<path fill="#ffffff" d=" M 200.86 113.10 C 202.07 111.20 204.10 109.80 206.13 108.87 C 208.80 110.36 212.70 112.38 212.09 116.02 C 212.06 132.00 212.02 147.99 212.10 163.97 C 212.13 165.49 211.96 167.01 211.47 168.45 C 208.73 153.37 205.53 138.37 202.57 123.33 C 201.96 119.93 200.91 116.57 200.86 113.10 Z" />
<path fill="#ffffff" d=" M 213.12 113.07 C 214.79 111.46 216.58 109.44 218.82 108.84 C 220.84 110.49 224.97 111.80 223.83 115.10 C 220.43 132.37 216.77 149.59 213.58 166.90 C 212.74 165.04 212.98 162.99 212.95 161.02 C 213.07 145.04 212.73 129.04 213.12 113.07 Z" />
<path fill="#aaaaaa" d=" M 187.33 114.43 C 188.61 113.85 190.41 114.81 190.80 116.13 C 190.04 117.71 186.60 115.98 187.33 114.43 Z" />
<path fill="#aaaaaa" d=" M 232.34 116.64 C 234.59 112.63 239.27 114.33 242.73 115.29 C 240.95 120.03 235.81 117.04 232.34 116.64 Z" />
<path fill="#aaaaaa" d=" M 183.36 115.40 C 184.64 114.80 186.47 115.81 186.81 117.16 C 186.06 118.81 182.80 116.90 183.36 115.40 Z" />
<path fill="#ffffff" d=" M 44.54 115.70 C 45.72 116.02 46.89 116.40 48.04 116.83 C 72.62 126.74 97.18 136.71 121.77 146.58 C 121.47 148.40 121.15 150.22 120.84 152.05 C 106.54 146.47 92.49 140.21 78.03 135.08 C 89.67 145.09 102.26 153.97 114.11 163.75 C 112.66 164.95 111.14 166.08 109.52 167.05 C 91.08 152.23 72.28 137.87 53.70 123.22 C 50.65 120.71 47.25 118.60 44.54 115.70 Z" />
<path fill="#aaaaaa" d=" M 176.27 117.26 C 178.14 116.73 180.01 116.05 181.96 115.87 C 183.15 116.49 183.97 117.58 184.67 118.70 C 182.81 119.20 180.98 119.83 179.07 120.05 C 177.87 119.42 177.11 118.27 176.27 117.26 Z" />
<path fill="#aaaaaa" d=" M 243.35 116.30 C 246.56 115.85 243.09 120.07 241.40 118.65 C 240.84 117.52 242.50 116.65 243.35 116.30 Z" />
<path fill="#aaaaaa" d=" M 246.38 117.26 C 249.47 116.85 245.95 121.06 244.40 119.67 C 243.80 118.49 245.45 117.56 246.38 117.26 Z" />
<path fill="#aaaaaa" d=" M 249.12 117.91 C 251.59 118.45 253.93 119.55 255.95 121.07 C 254.97 121.81 253.98 122.54 252.99 123.27 C 250.81 122.29 248.58 121.43 246.33 120.67 C 247.08 119.59 247.80 118.37 249.12 117.91 Z" />
<path fill="#aaaaaa" d=" M 256.20 121.38 C 256.74 121.97 256.74 121.97 256.20 121.38 Z" />
<path fill="#22b14c" d=" M 172.34 122.72 C 172.38 122.75 172.47 122.83 172.52 122.87 L 172.23 122.75 L 172.34 122.72 Z" />
<path fill="#aaaaaa" d=" M 255.03 123.86 C 256.50 122.71 258.23 121.99 259.96 121.32 C 264.23 129.33 267.74 137.95 269.36 146.90 L 268.39 146.05 C 266.54 140.05 264.89 133.90 261.97 128.31 C 260.02 126.33 257.10 125.71 255.03 123.86 Z" />
<path fill="#aaaaaa" d=" M 254.32 123.07 C 254.87 123.64 254.87 123.64 254.32 123.07 Z" />
<path fill="#ffffff" d=" M 196.25 137.38 C 197.98 136.92 199.79 137.03 201.56 137.10 C 198.97 138.74 195.85 138.92 192.96 139.71 C 187.32 141.08 181.98 143.40 176.83 146.03 C 176.89 145.62 177.00 144.81 177.06 144.41 C 183.08 141.16 189.64 139.04 196.25 137.38 Z" />
<path fill="#ffffff" d=" M 84.78 138.91 C 96.91 143.37 108.78 148.52 120.81 153.25 C 122.27 156.12 123.61 159.04 124.93 161.98 C 121.55 162.45 117.85 163.73 114.56 162.52 C 104.70 154.57 94.36 147.17 84.78 138.91 Z" />
<path fill="#ffffff" d=" M 188.17 142.30 C 193.75 140.71 199.42 138.54 205.31 139.14 C 201.14 141.38 196.16 140.92 191.77 142.61 C 189.11 143.72 185.53 143.83 183.81 146.38 L 183.20 145.84 C 182.83 146.03 182.11 146.41 181.74 146.60 C 180.86 146.82 179.10 147.27 178.22 147.49 C 180.63 144.48 184.79 143.80 188.17 142.30 Z" />
<path fill="#ffffff" d=" M 219.67 138.95 C 226.73 138.96 233.58 141.18 240.12 143.65 C 242.97 144.83 245.94 145.95 248.28 148.04 C 246.76 147.98 245.30 147.63 243.96 146.90 C 237.71 143.85 231.03 141.62 224.12 140.68 C 222.59 140.32 220.67 140.37 219.67 138.95 Z" />
<path fill="#ffffff" d=" M 183.81 146.38 C 190.78 143.94 197.89 141.91 205.23 141.00 C 205.08 141.42 204.78 142.27 204.62 142.69 C 197.32 143.27 190.17 145.33 183.52 148.36 C 182.26 148.76 180.75 150.26 179.79 148.63 C 180.28 148.12 181.26 147.11 181.74 146.60 L 182.36 147.12 C 182.72 146.93 183.45 146.57 183.81 146.38 Z" />
<path fill="#ffffff" d=" M 219.11 142.35 C 223.77 144.14 227.45 147.73 231.37 150.73 C 234.44 153.39 237.76 155.83 240.21 159.10 C 236.52 158.75 235.11 154.27 231.46 153.46 C 231.34 153.34 231.10 153.10 230.98 152.98 C 230.86 152.86 230.61 152.61 230.48 152.49 C 229.60 150.75 228.23 148.84 226.04 149.02 C 226.14 147.06 224.11 146.16 222.44 146.28 C 221.26 145.03 220.08 143.77 219.11 142.35 Z" />
<path fill="#ffffff" d=" M 181.58 150.39 C 189.19 147.02 197.26 143.93 205.69 143.91 C 206.29 148.00 207.19 152.03 208.05 156.07 C 201.35 156.67 194.65 157.67 187.97 158.04 C 185.52 155.78 183.47 153.12 181.58 150.39 Z" />
<path fill="#ffffff" d=" M 218.71 145.05 C 219.95 145.45 221.20 145.86 222.44 146.28 C 222.72 147.99 224.25 149.33 226.04 149.02 C 226.47 151.14 228.70 151.84 230.48 152.49 C 230.61 152.61 230.86 152.86 230.98 152.98 C 231.10 153.10 231.34 153.34 231.46 153.46 C 233.32 156.50 237.07 158.10 238.17 161.61 C 233.76 158.50 230.23 154.30 225.78 151.21 C 223.55 149.03 220.00 148.04 218.71 145.05 Z" />
<path fill="#ffffff" d=" M 226.36 144.93 C 232.97 145.58 238.96 148.69 244.97 151.29 C 243.64 153.26 242.34 155.28 240.67 157.00 C 239.25 156.90 238.46 155.42 237.42 154.62 C 234.09 150.98 229.81 148.42 226.36 144.93 Z" />
<path fill="#aaaaaa" d=" M 181.74 146.60 C 182.11 146.41 182.83 146.03 183.20 145.84 L 183.81 146.38 C 183.45 146.57 182.72 146.93 182.36 147.12 L 181.74 146.60 Z" />
<path fill="#aaaaaa" d=" M 222.44 146.28 C 224.11 146.16 226.14 147.06 226.04 149.02 C 224.25 149.33 222.72 147.99 222.44 146.28 Z" />
<path fill="#ffffff" d=" M 158.67 157.76 C 163.04 153.57 167.66 149.45 173.17 146.84 C 172.63 150.08 168.10 150.00 167.08 153.02 C 164.12 153.82 161.90 156.10 160.44 158.71 L 160.17 158.70 L 159.87 159.08 C 159.58 159.38 159.02 159.97 158.73 160.27 C 158.54 160.47 158.15 160.87 157.95 161.07 C 157.83 161.20 157.58 161.46 157.45 161.59 C 155.40 162.90 153.46 164.58 153.05 167.11 C 149.61 168.38 149.44 173.44 145.82 174.63 C 148.94 168.23 153.65 162.75 158.67 157.76 Z" />
<path fill="#aaaaaa" d=" M 269.18 147.27 C 270.38 147.69 270.60 148.55 269.83 149.86 C 268.61 149.43 268.40 148.57 269.18 147.27 Z" />
<path fill="#ffffff" d=" M 218.31 147.46 C 222.81 150.21 227.11 153.39 230.83 157.15 C 226.16 157.12 221.53 156.57 216.88 156.26 C 217.29 153.32 217.84 150.39 218.31 147.46 Z" />
<path fill="#ffffff" d=" M 252.78 147.70 C 258.15 150.09 262.49 154.28 266.68 158.31 C 268.54 160.33 270.93 162.10 271.74 164.86 C 266.93 161.72 264.10 156.00 258.66 153.61 C 258.62 151.85 256.94 150.78 255.29 151.21 C 254.40 150.08 253.54 148.92 252.78 147.70 Z" />
<path fill="#aaaaaa" d=" M 226.04 149.02 C 228.23 148.84 229.60 150.75 230.48 152.49 C 228.70 151.84 226.47 151.14 226.04 149.02 Z" />
<path fill="#ffffff" d=" M 167.08 153.02 C 169.63 152.15 171.57 150.07 174.23 149.42 C 173.86 150.03 173.13 151.25 172.77 151.85 C 171.50 151.90 169.85 152.46 169.92 154.01 C 167.87 153.97 166.25 155.45 165.66 157.34 C 165.47 157.52 165.10 157.89 164.91 158.07 C 164.76 158.19 164.46 158.44 164.31 158.57 C 162.30 159.90 160.34 161.33 158.38 162.76 C 158.20 163.41 157.83 164.71 157.65 165.36 C 157.50 165.51 157.20 165.80 157.05 165.95 C 156.93 166.07 156.69 166.31 156.57 166.43 C 154.44 168.09 153.11 170.71 150.59 171.88 C 151.41 170.29 152.29 168.73 153.05 167.11 C 155.02 165.72 156.39 163.72 157.45 161.59 C 157.58 161.46 157.83 161.20 157.95 161.07 C 158.15 160.87 158.54 160.47 158.73 160.27 L 159.57 159.86 L 159.87 159.08 C 160.01 158.99 160.30 158.80 160.44 158.71 C 162.95 157.19 165.38 155.45 167.08 153.02 Z" />
<path fill="#ffffff" d=" M 251.71 150.02 C 252.91 150.40 254.10 150.80 255.29 151.21 C 255.28 153.02 256.95 154.23 258.66 153.61 C 259.57 155.52 261.32 156.77 262.88 158.12 C 265.64 160.38 267.80 163.25 270.21 165.86 C 271.32 166.93 271.89 168.34 272.19 169.85 C 270.43 168.50 268.90 166.88 267.33 165.34 C 267.21 165.22 266.97 164.96 266.85 164.84 C 266.66 164.65 266.29 164.28 266.11 164.10 C 265.93 163.92 265.57 163.56 265.39 163.39 C 265.17 163.16 264.73 162.72 264.51 162.50 C 264.16 162.15 263.47 161.46 263.13 161.12 C 262.85 160.84 262.28 160.28 262.00 160.00 C 261.74 159.75 261.21 159.24 260.95 158.99 C 260.71 158.77 260.23 158.34 259.99 158.12 C 259.83 157.88 259.52 157.40 259.36 157.16 C 258.90 155.55 257.38 154.88 255.85 154.77 C 255.70 154.65 255.41 154.41 255.27 154.29 C 254.02 152.92 252.47 151.77 251.71 150.02 Z" />
<path fill="#aaaaaa" d=" M 255.29 151.21 C 256.94 150.78 258.62 151.85 258.66 153.61 C 256.95 154.23 255.28 153.02 255.29 151.21 Z" />
<path fill="#aaaaaa" d=" M 169.92 154.01 C 169.85 152.46 171.50 151.90 172.77 151.85 C 172.88 153.33 171.28 154.42 169.92 154.01 Z" />
<path fill="#ffffff" d=" M 172.77 151.85 C 173.40 151.94 174.66 152.11 175.29 152.20 C 170.70 156.32 165.11 159.35 161.22 164.25 L 161.35 165.33 C 158.85 165.38 157.99 168.57 155.68 169.33 C 155.91 168.61 156.35 167.15 156.57 166.43 C 156.69 166.31 156.93 166.07 157.05 165.95 C 157.20 165.80 157.50 165.51 157.65 165.36 C 160.30 163.57 162.59 161.27 164.31 158.57 C 164.46 158.44 164.76 158.19 164.91 158.07 C 165.10 157.89 165.47 157.52 165.66 157.34 C 167.44 156.85 169.52 156.08 169.92 154.01 C 171.28 154.42 172.88 153.33 172.77 151.85 Z" />
<path fill="#aaaaaa" d=" M 230.48 152.49 C 230.61 152.61 230.86 152.86 230.98 152.98 C 230.86 152.86 230.61 152.61 230.48 152.49 Z" />
<path fill="#aaaaaa" d=" M 160.44 158.71 C 161.90 156.10 164.12 153.82 167.08 153.02 C 165.38 155.45 162.95 157.19 160.44 158.71 Z" />
<path fill="#aaaaaa" d=" M 230.98 152.98 C 231.10 153.10 231.34 153.34 231.46 153.46 C 231.34 153.34 231.10 153.10 230.98 152.98 Z" />
<path fill="#ffffff" d=" M 250.68 152.73 C 252.19 153.28 253.72 153.81 255.27 154.29 C 255.41 154.41 255.70 154.65 255.85 154.77 C 256.12 156.37 257.87 157.15 259.36 157.16 C 259.52 157.40 259.83 157.88 259.99 158.12 C 260.23 158.34 260.71 158.77 260.95 158.99 C 261.21 159.24 261.74 159.75 262.00 160.00 C 262.28 160.28 262.85 160.84 263.13 161.12 C 263.47 161.46 264.16 162.15 264.51 162.50 C 264.73 162.72 265.17 163.16 265.39 163.39 C 265.57 163.56 265.93 163.92 266.11 164.10 C 266.29 164.28 266.66 164.65 266.85 164.84 C 266.97 164.96 267.21 165.22 267.33 165.34 C 268.46 168.72 272.06 170.87 272.21 174.59 C 268.13 170.05 264.88 164.75 260.16 160.79 C 257.22 157.83 253.35 155.94 250.68 152.73 Z" />
<path fill="#aaaaaa" d=" M 165.66 157.34 C 166.25 155.45 167.87 153.97 169.92 154.01 C 169.52 156.08 167.44 156.85 165.66 157.34 Z" />
<path fill="#ffffff" d=" M 161.35 165.33 C 165.82 161.16 170.37 156.98 175.68 153.88 C 176.67 156.14 177.72 158.38 178.88 160.57 C 172.71 162.38 166.65 164.51 160.71 166.97 C 160.87 166.56 161.19 165.74 161.35 165.33 Z" />
<path fill="#aaaaaa" d=" M 255.27 154.29 C 255.41 154.41 255.70 154.65 255.85 154.77 C 255.70 154.65 255.41 154.41 255.27 154.29 Z" />
<path fill="#aaaaaa" d=" M 255.85 154.77 C 257.38 154.88 258.90 155.55 259.36 157.16 C 257.87 157.15 256.12 156.37 255.85 154.77 Z" />
<path fill="#aaaaaa" d=" M 164.91 158.07 C 165.10 157.89 165.47 157.52 165.66 157.34 C 165.47 157.52 165.10 157.89 164.91 158.07 Z" />
<path fill="#ffffff" d=" M 188.91 159.60 C 195.00 158.06 201.37 157.88 207.59 157.20 C 207.82 157.63 208.28 158.49 208.51 158.92 C 202.37 158.66 196.33 159.79 190.28 160.57 C 189.94 160.32 189.25 159.84 188.91 159.60 Z" />
<path fill="#ffffff" d=" M 215.78 158.84 C 217.02 155.86 220.55 157.80 222.89 157.79 C 226.56 158.50 231.30 157.39 234.07 160.29 C 227.96 159.90 221.93 158.72 215.78 158.84 Z" />
<path fill="#aaaaaa" d=" M 259.36 157.16 C 259.52 157.40 259.83 157.88 259.99 158.12 C 259.83 157.88 259.52 157.40 259.36 157.16 Z" />
<path fill="#aaaaaa" d=" M 160.17 158.70 L 160.44 158.71 C 160.30 158.80 160.01 158.99 159.87 159.08 L 160.17 158.70 Z" />
<path fill="#aaaaaa" d=" M 164.31 158.57 C 164.46 158.44 164.76 158.19 164.91 158.07 C 164.76 158.19 164.46 158.44 164.31 158.57 Z" />
<path fill="#aaaaaa" d=" M 259.99 158.12 C 260.23 158.34 260.71 158.77 260.95 158.99 C 260.71 158.77 260.23 158.34 259.99 158.12 Z" />
<path fill="#aaaaaa" d=" M 158.73 160.27 C 159.02 159.97 159.58 159.38 159.87 159.08 L 159.57 159.86 L 158.73 160.27 Z" />
<path fill="#aaaaaa" d=" M 158.38 162.76 C 160.34 161.33 162.30 159.90 164.31 158.57 C 162.59 161.27 160.30 163.57 157.65 165.36 C 157.83 164.71 158.20 163.41 158.38 162.76 Z" />
<path fill="#aaaaaa" d=" M 260.95 158.99 C 261.21 159.24 261.74 159.75 262.00 160.00 C 261.74 159.75 261.21 159.24 260.95 158.99 Z" />
<path fill="#aaaaaa" d=" M 157.95 161.07 C 158.15 160.87 158.54 160.47 158.73 160.27 C 158.54 160.47 158.15 160.87 157.95 161.07 Z" />
<path fill="#ffffff" d=" M 191.83 161.33 C 197.64 160.76 203.44 159.52 209.30 160.09 C 208.39 161.57 206.43 161.21 204.98 161.50 C 200.59 161.82 196.19 162.09 191.86 162.94 C 191.85 162.54 191.84 161.73 191.83 161.33 Z" />
<path fill="#ffffff" d=" M 215.70 160.06 C 222.97 159.69 230.23 160.94 237.31 162.47 C 235.47 163.74 233.17 162.84 231.15 162.64 C 226.30 161.61 221.26 161.99 216.42 160.96 L 215.70 160.06 Z" />
<path fill="#aaaaaa" d=" M 262.00 160.00 C 262.28 160.28 262.85 160.84 263.13 161.12 C 262.85 160.84 262.28 160.28 262.00 160.00 Z" />
<path fill="#aaaaaa" d=" M 157.45 161.59 C 157.58 161.46 157.83 161.20 157.95 161.07 C 157.83 161.20 157.58 161.46 157.45 161.59 Z" />
<path fill="#aaaaaa" d=" M 263.13 161.12 C 263.47 161.46 264.16 162.15 264.51 162.50 C 264.16 162.15 263.47 161.46 263.13 161.12 Z" />
<path fill="#aaaaaa" d=" M 153.05 167.11 C 153.46 164.58 155.40 162.90 157.45 161.59 C 156.39 163.72 155.02 165.72 153.05 167.11 Z" />
<path fill="#ffffff" d=" M 215.60 162.48 C 217.94 161.25 220.46 162.69 222.87 162.82 C 227.05 163.04 231.15 163.80 235.30 164.33 C 233.98 166.60 232.65 168.93 230.71 170.74 C 224.70 171.80 218.59 172.64 212.94 175.10 C 213.90 170.91 214.41 166.58 215.60 162.48 Z" />
<path fill="#aaaaaa" d=" M 264.51 162.50 C 264.73 162.72 265.17 163.16 265.39 163.39 C 265.17 163.16 264.73 162.72 264.51 162.50 Z" />
<path fill="#aaaaaa" d=" M 155.42 172.38 C 163.46 168.02 172.22 165.34 180.83 162.37 C 182.54 166.55 184.62 170.56 186.26 174.77 C 186.98 176.06 185.93 177.36 185.56 178.58 C 177.68 195.53 179.94 216.73 191.32 231.57 C 193.34 234.51 197.93 233.56 199.92 236.36 C 187.57 233.79 176.67 225.52 169.88 215.00 C 167.63 211.71 166.39 207.86 164.16 204.57 C 164.99 203.81 165.82 203.05 166.65 202.30 C 170.00 213.11 177.36 222.94 187.32 228.46 C 183.19 219.89 179.52 210.67 179.97 200.97 C 179.62 193.25 181.21 185.50 184.37 178.45 C 186.53 175.20 183.50 171.92 182.51 168.81 C 175.42 175.88 170.26 184.72 165.53 193.49 C 163.41 196.73 168.56 201.59 164.22 203.64 C 163.56 202.48 164.61 199.45 162.41 199.84 C 161.73 201.49 161.19 203.20 160.65 204.90 C 161.47 204.93 163.10 204.97 163.92 205.00 C 161.76 206.77 158.53 206.29 155.93 207.14 C 147.14 209.14 138.08 210.05 129.47 212.75 C 141.73 213.44 153.90 215.28 166.15 216.12 C 167.38 215.98 168.14 217.09 168.82 217.92 C 177.08 229.99 190.62 238.29 205.12 240.23 C 209.95 241.01 215.03 241.35 219.77 239.89 C 222.04 238.70 223.78 236.73 225.49 234.86 C 222.67 235.89 219.92 237.21 216.95 237.78 C 211.31 238.51 205.61 237.87 200.05 236.83 C 200.45 236.42 201.24 235.60 201.64 235.19 C 201.12 235.25 200.06 235.37 199.53 235.43 L 199.40 234.16 L 200.88 233.82 C 200.81 233.22 200.69 232.03 200.62 231.43 C 200.89 230.95 201.42 230.00 201.68 229.53 C 201.89 230.45 202.30 232.28 202.50 233.19 L 202.55 233.38 L 202.73 233.44 C 204.72 234.08 206.75 234.63 208.78 235.15 C 209.75 236.12 210.88 236.38 212.17 235.93 L 212.88 235.94 C 214.33 236.52 215.38 236.19 216.03 234.94 C 216.79 234.86 218.31 234.71 219.07 234.63 L 219.48 234.59 L 219.78 234.28 L 220.85 234.03 C 222.01 233.83 223.17 233.64 224.33 233.48 C 225.34 232.24 226.37 231.02 227.45 229.84 C 229.25 227.99 230.72 225.85 232.19 223.73 C 232.30 223.54 232.51 223.18 232.61 222.99 L 233.13 221.94 C 233.20 221.79 233.35 221.49 233.42 221.34 L 234.06 220.10 C 234.26 219.53 234.67 218.38 234.88 217.80 C 234.97 217.36 235.14 216.48 235.22 216.03 L 236.48 215.31 C 238.11 219.97 235.17 224.21 232.88 228.03 C 222.24 244.49 201.56 253.31 182.30 249.98 C 181.00 254.85 178.74 259.44 177.89 264.43 C 176.17 262.94 177.84 260.34 176.11 258.91 C 172.31 254.57 169.20 249.71 165.83 245.05 C 162.07 246.89 159.46 250.58 156.13 253.13 C 159.77 259.01 165.58 263.03 169.89 268.28 C 166.07 266.66 163.55 263.17 160.60 260.40 C 158.45 257.90 155.86 255.62 154.58 252.51 C 160.76 247.73 166.52 242.41 172.28 237.14 C 171.60 237.01 170.25 236.76 169.57 236.64 C 170.22 236.24 171.51 235.44 172.16 235.04 C 170.06 235.32 168.02 235.86 166.02 236.50 C 164.98 232.14 162.39 228.41 160.82 224.25 C 159.65 221.47 159.02 218.35 156.84 216.13 C 157.39 219.12 158.54 221.97 159.00 224.98 C 157.75 223.42 157.04 221.55 156.41 219.69 C 154.69 226.33 152.70 232.98 152.95 239.95 C 155.62 239.01 158.31 238.13 161.03 237.34 C 159.63 232.77 156.71 228.80 155.87 224.05 C 159.24 227.81 159.40 233.54 163.47 236.77 C 162.43 232.66 159.65 229.21 159.00 224.98 C 161.88 228.55 162.97 233.18 165.69 236.89 C 150.45 241.77 135.39 247.16 120.19 252.16 C 119.69 254.57 119.28 256.99 119.03 259.43 C 121.86 260.07 124.96 262.95 127.75 260.81 C 141.68 252.74 155.62 244.68 169.57 236.64 L 170.31 237.69 C 155.52 246.01 140.83 254.54 126.19 263.14 C 126.18 265.49 125.06 267.96 125.66 270.23 C 127.70 271.29 129.92 271.95 132.08 272.71 C 135.58 269.69 138.84 266.37 142.56 263.61 L 142.65 264.83 C 140.18 267.45 136.95 269.27 134.74 272.14 C 139.49 279.42 146.15 285.59 153.23 290.70 C 152.81 288.82 152.29 286.96 152.19 285.03 C 154.06 286.56 154.61 289.76 154.72 292.15 C 154.71 292.22 154.68 292.36 154.67 292.43 L 154.78 292.54 C 155.10 292.95 155.73 293.79 156.04 294.20 C 156.00 294.33 155.91 294.57 155.87 294.69 C 156.62 295.65 157.16 296.73 157.47 297.92 C 154.62 300.68 153.86 304.70 152.24 308.17 C 149.58 315.26 145.89 322.00 143.97 329.34 C 143.52 328.83 143.07 328.31 142.64 327.79 C 147.46 317.85 150.91 307.29 155.73 297.35 C 146.46 290.75 138.06 282.95 131.08 273.96 C 128.50 272.44 125.07 270.30 122.10 272.07 C 112.20 276.26 102.19 280.17 92.24 284.25 C 88.61 285.61 85.14 287.45 81.35 288.37 C 82.57 286.60 84.38 285.44 86.05 284.16 C 96.56 275.96 107.01 267.69 117.63 259.64 C 118.20 256.73 119.40 253.68 118.18 250.77 C 117.53 249.11 119.67 248.19 120.70 247.37 C 120.73 249.18 121.88 250.77 123.77 249.79 C 129.03 248.12 134.13 245.95 139.52 244.69 C 136.99 236.60 133.93 228.55 133.62 219.97 C 134.09 218.79 134.56 217.62 135.03 216.44 C 134.57 216.54 133.66 216.75 133.21 216.85 C 133.12 216.18 132.96 214.82 132.88 214.15 C 129.73 213.74 126.58 213.32 123.47 212.69 C 126.47 211.43 129.72 211.10 132.92 210.73 C 133.67 203.76 134.48 196.80 136.28 190.01 C 137.54 190.88 138.54 192.34 137.84 193.92 C 136.71 198.85 135.71 203.86 135.81 208.94 C 136.05 209.30 136.53 210.01 136.78 210.36 C 137.30 201.65 139.05 193.03 142.11 184.85 C 139.37 185.77 139.44 189.29 138.55 191.55 C 137.82 190.72 137.09 189.89 136.36 189.06 C 135.05 189.93 133.83 190.93 133.04 192.32 C 132.55 191.87 132.07 191.42 131.60 190.96 C 137.25 187.29 142.08 182.18 148.42 179.67 C 147.07 182.79 145.71 185.91 144.20 188.97 C 144.15 186.65 144.87 184.43 145.42 182.22 C 144.43 183.37 143.39 184.54 142.93 186.02 C 140.15 193.63 138.34 201.62 137.96 209.72 C 138.38 209.42 139.22 208.81 139.64 208.51 C 140.06 202.73 140.74 196.94 142.50 191.39 C 142.75 190.36 143.31 189.56 144.20 188.97 C 142.63 195.57 140.75 202.15 140.73 209.00 L 141.85 209.00 C 142.55 199.29 145.09 189.80 149.24 181.01 C 149.03 180.67 148.63 180.00 148.42 179.67 L 148.09 179.14 C 158.43 173.01 169.60 168.49 181.07 164.98 C 179.60 163.46 177.61 164.97 175.97 165.23 C 166.55 167.99 157.79 172.44 149.04 176.79 C 150.30 174.33 153.21 173.70 155.42 172.38 Z" />
<path fill="#ffffff" d=" M 193.26 164.39 C 195.08 163.06 197.34 163.04 199.50 162.97 C 198.30 164.46 196.98 165.86 195.52 167.10 C 194.96 166.42 193.82 165.07 193.26 164.39 Z" />
<path fill="#ffffff" d=" M 202.11 164.15 C 203.87 162.35 207.69 161.07 209.44 163.32 C 210.41 167.39 210.98 171.55 211.96 175.62 C 200.90 180.27 192.20 189.08 186.04 199.21 C 185.87 185.94 192.24 172.89 202.11 164.15 Z" />
<path fill="#aaaaaa" d=" M 265.39 163.39 C 265.57 163.56 265.93 163.92 266.11 164.10 C 265.93 163.92 265.57 163.56 265.39 163.39 Z" />
<path fill="#aaaaaa" d=" M 266.11 164.10 C 266.29 164.28 266.66 164.65 266.85 164.84 C 266.66 164.65 266.29 164.28 266.11 164.10 Z" />
<path fill="#aaaaaa" d=" M 157.05 165.95 C 157.20 165.80 157.50 165.51 157.65 165.36 C 157.50 165.51 157.20 165.80 157.05 165.95 Z" />
<path fill="#aaaaaa" d=" M 266.85 164.84 C 266.97 164.96 267.21 165.22 267.33 165.34 C 267.21 165.22 266.97 164.96 266.85 164.84 Z" />
<path fill="#aaaaaa" d=" M 156.57 166.43 C 156.69 166.31 156.93 166.07 157.05 165.95 C 156.93 166.07 156.69 166.31 156.57 166.43 Z" />
<path fill="#ffffff" d=" M 177.66 166.81 C 177.64 167.47 177.60 168.79 177.58 169.45 C 177.48 169.54 177.27 169.73 177.17 169.83 C 175.29 170.22 174.14 172.17 174.31 174.02 C 172.54 173.63 171.54 175.81 172.39 177.18 C 170.59 176.42 169.34 178.74 170.38 180.13 C 168.73 179.81 167.79 181.46 167.55 182.85 C 166.09 184.18 164.96 185.85 164.85 187.89 C 164.64 188.41 164.22 189.45 164.01 189.97 L 163.22 190.24 C 163.13 190.66 162.96 191.49 162.87 191.91 C 162.64 192.41 162.19 193.43 161.96 193.94 C 161.67 194.38 161.10 195.27 160.81 195.71 C 160.57 196.04 160.10 196.69 159.87 197.01 L 160.33 197.71 C 157.18 199.66 158.40 204.84 154.93 206.29 C 158.74 193.58 165.75 182.02 173.48 171.31 C 174.74 169.69 176.20 168.25 177.66 166.81 Z" />
<path fill="#ffffff" d=" M 177.58 169.45 C 178.91 168.32 180.28 167.11 182.01 166.65 C 173.54 177.41 165.58 188.77 160.62 201.63 C 159.97 203.17 159.64 205.06 157.85 205.69 C 158.57 203.00 159.56 200.39 160.33 197.71 C 160.56 197.38 161.02 196.73 161.26 196.40 L 160.81 195.71 L 161.67 195.62 C 161.74 195.20 161.89 194.36 161.96 193.94 C 162.19 193.43 162.64 192.41 162.87 191.91 C 163.16 191.42 163.72 190.46 164.01 189.97 C 164.30 189.65 164.89 189.01 165.18 188.69 L 164.85 187.89 C 167.03 187.44 168.28 184.90 167.55 182.85 C 169.16 183.01 169.88 181.35 170.38 180.13 C 171.28 179.32 171.90 178.28 172.39 177.18 C 173.41 176.41 174.03 175.25 174.31 174.02 C 175.14 173.47 175.95 172.90 176.74 172.32 C 176.85 171.69 177.06 170.45 177.17 169.83 C 177.27 169.73 177.48 169.54 177.58 169.45 Z" />
<path fill="#ffffff" d=" M 154.23 177.08 C 160.34 173.80 166.72 171.00 173.29 168.79 C 173.34 169.42 173.43 170.68 173.48 171.31 L 172.24 171.32 C 163.99 181.85 157.83 193.97 153.38 206.56 C 149.89 207.20 146.41 207.94 142.88 208.31 C 143.93 200.33 145.41 192.33 148.80 184.96 C 150.22 182.13 151.05 178.48 154.23 177.08 Z" />
<path fill="#aaaaaa" d=" M 177.17 169.83 C 177.27 169.73 177.48 169.54 177.58 169.45 C 177.48 169.54 177.27 169.73 177.17 169.83 Z" />
<path fill="#aaaaaa" d=" M 174.31 174.02 C 174.14 172.17 175.29 170.22 177.17 169.83 C 177.06 170.45 176.85 171.69 176.74 172.32 C 175.95 172.90 175.14 173.47 174.31 174.02 Z" />
<path fill="#000000" d=" M 172.39 177.18 C 171.54 175.81 172.54 173.63 174.31 174.02 C 174.03 175.25 173.41 176.41 172.39 177.18 Z" />
<path fill="#aaaaaa" d=" M 252.15 176.11 C 253.82 175.96 255.31 178.54 254.91 180.09 C 253.40 179.64 251.99 177.70 252.15 176.11 Z" />
<path fill="#000000" d=" M 170.38 180.13 C 169.34 178.74 170.59 176.42 172.39 177.18 C 171.90 178.28 171.28 179.32 170.38 180.13 Z" />
<path fill="#aaaaaa" d=" M 307.26 177.26 C 308.76 178.05 306.82 181.33 305.34 180.65 C 304.65 179.30 305.97 177.62 307.26 177.26 Z" />
<path fill="#000000" d=" M 141.94 181.11 C 141.73 179.78 143.69 178.70 144.79 179.30 C 144.96 180.53 142.99 181.55 141.94 181.11 Z" />
<path fill="#ffffff" d=" M 277.84 178.65 C 280.78 181.74 281.73 186.08 283.21 189.96 C 285.10 196.61 286.86 203.58 286.56 210.50 C 286.24 210.67 285.60 211.01 285.28 211.18 C 285.12 203.29 283.79 195.41 281.08 187.99 C 279.97 184.88 278.29 181.95 277.84 178.65 Z" />
<path fill="#ffffff" d=" M 148.42 179.67 C 148.63 180.00 149.03 180.67 149.24 181.01 C 145.09 189.80 142.55 199.29 141.85 209.00 L 140.73 209.00 C 140.75 202.15 142.63 195.57 144.20 188.97 C 145.71 185.91 147.07 182.79 148.42 179.67 Z" />
<path fill="#000000" d=" M 167.55 182.85 C 167.79 181.46 168.73 179.81 170.38 180.13 C 169.88 181.35 169.16 183.01 167.55 182.85 Z" />
<path fill="#000000" d=" M 254.91 180.09 C 255.21 180.34 255.81 180.85 256.12 181.11 L 255.80 181.82 C 255.50 181.57 254.89 181.07 254.59 180.82 L 254.91 180.09 Z" />
<path fill="#aaaaaa" d=" M 308.16 180.26 C 309.81 180.97 307.83 184.22 306.34 183.59 C 305.62 182.30 306.85 180.57 308.16 180.26 Z" />
<path fill="#aaaaaa" d=" M 138.88 183.14 C 138.90 181.81 140.70 180.60 141.94 181.11 C 141.97 182.46 140.08 183.40 138.88 183.14 Z" />
<path fill="#000000" d=" M 255.80 181.82 C 256.97 181.88 258.58 183.38 258.14 184.59 C 256.78 184.95 255.60 183.00 255.80 181.82 Z" />
<path fill="#aaaaaa" d=" M 138.10 183.80 C 138.29 183.64 138.68 183.31 138.88 183.14 C 138.68 183.31 138.29 183.64 138.10 183.80 Z" />
<path fill="#ffffff" d=" M 142.93 186.02 C 143.39 184.54 144.43 183.37 145.42 182.22 C 144.87 184.43 144.15 186.65 144.20 188.97 C 143.31 189.56 142.75 190.36 142.50 191.39 C 140.74 196.94 140.06 202.73 139.64 208.51 C 139.22 208.81 138.38 209.42 137.96 209.72 C 138.34 201.62 140.15 193.63 142.93 186.02 Z" />
<path fill="#aaaaaa" d=" M 164.85 187.89 C 164.96 185.85 166.09 184.18 167.55 182.85 C 168.28 184.90 167.03 187.44 164.85 187.89 Z" />
<path fill="#aaaaaa" d=" M 306.66 184.85 C 307.66 184.00 308.68 183.15 309.71 182.32 C 310.73 185.78 312.30 190.38 308.34 192.67 C 307.87 190.04 307.32 187.43 306.66 184.85 Z" />
<path fill="#aaaaaa" d=" M 135.00 186.02 C 134.96 184.63 136.83 183.53 138.10 183.80 C 137.97 185.13 136.29 186.31 135.00 186.02 Z" />
<path fill="#aaaaaa" d=" M 258.14 184.59 C 262.57 190.90 265.54 198.16 268.24 205.35 L 267.16 205.73 C 265.09 199.80 262.45 194.08 259.38 188.60 C 258.77 187.34 257.82 186.07 258.14 184.59 Z" />
<path fill="#ffffff" d=" M 278.04 184.32 C 282.21 192.30 284.10 201.63 283.90 210.61 C 282.43 209.36 282.70 207.23 282.38 205.51 C 282.00 199.93 280.75 194.43 278.79 189.20 C 278.14 187.65 277.99 185.98 278.04 184.32 Z" />
<path fill="#aaaaaa" d=" M 134.45 186.56 C 134.58 186.43 134.86 186.16 135.00 186.02 C 134.86 186.16 134.58 186.43 134.45 186.56 Z" />
<path fill="#aaaaaa" d=" M 128.50 191.53 C 129.64 189.07 132.01 187.53 134.45 186.56 C 133.22 188.97 130.85 190.41 128.50 191.53 Z" />
<path fill="#aaaaaa" d=" M 208.24 187.13 C 214.73 186.33 221.06 188.06 227.43 188.98 C 226.71 189.58 225.97 190.15 225.24 190.72 C 232.66 194.60 236.56 202.61 239.06 210.24 C 238.99 210.64 238.86 211.45 238.80 211.85 C 235.37 213.82 235.90 209.07 236.79 207.17 C 236.35 207.99 235.87 208.78 235.35 209.55 C 235.27 208.95 235.11 207.75 235.03 207.15 C 234.75 206.53 234.20 205.29 233.93 204.67 L 233.57 203.87 C 233.48 203.68 233.30 203.29 233.21 203.10 L 232.69 202.11 C 232.58 201.94 232.38 201.60 232.28 201.44 C 230.42 198.82 227.95 196.73 225.76 194.41 C 224.59 194.69 223.41 194.96 222.24 195.22 C 222.33 192.74 220.83 190.79 218.25 190.84 C 217.81 190.50 216.91 189.83 216.47 189.50 C 216.21 189.29 215.69 188.88 215.43 188.68 C 213.02 188.27 209.53 189.92 208.24 187.13 Z" />
<path fill="#aaaaaa" d=" M 164.01 189.97 C 164.22 189.45 164.64 188.41 164.85 187.89 L 165.18 188.69 C 164.89 189.01 164.30 189.65 164.01 189.97 Z" />
<path fill="#aaaaaa" d=" M 163.22 190.24 L 164.01 189.97 C 163.72 190.46 163.16 191.42 162.87 191.91 C 162.96 191.49 163.13 190.66 163.22 190.24 Z" />
<path fill="#ffffff" d=" M 204.88 190.90 C 205.45 190.67 206.59 190.21 207.16 189.98 L 206.76 190.74 C 206.29 190.78 205.35 190.86 204.88 190.90 Z" />
<path fill="#22b14c" d=" M 207.16 189.98 C 207.71 189.95 208.82 189.89 209.38 189.86 C 211.74 189.80 214.11 189.79 216.47 189.50 C 216.91 189.83 217.81 190.50 218.25 190.84 C 220.83 190.79 222.33 192.74 222.24 195.22 C 223.41 194.96 224.59 194.69 225.76 194.41 C 227.95 196.73 230.42 198.82 232.28 201.44 L 232.46 201.71 L 232.69 202.11 L 233.21 203.10 C 233.30 203.29 233.48 203.68 233.57 203.87 L 233.93 204.67 C 234.20 205.29 234.75 206.53 235.03 207.15 C 235.11 207.75 235.27 208.95 235.35 209.55 C 234.55 211.00 233.63 212.39 232.96 213.92 C 233.04 213.90 233.22 213.85 233.30 213.83 L 235.70 213.11 C 235.58 213.84 235.34 215.30 235.22 216.03 C 235.14 216.48 234.97 217.36 234.88 217.80 C 234.67 218.38 234.26 219.53 234.06 220.10 L 233.42 221.34 L 233.30 221.57 L 233.13 221.94 L 232.61 222.99 L 232.36 223.36 L 232.19 223.73 C 230.72 225.85 229.25 227.99 227.45 229.84 C 226.00 230.64 224.53 231.43 223.07 232.21 L 223.96 230.00 C 223.56 230.00 222.77 230.00 222.37 230.00 C 222.05 231.41 221.67 232.82 220.85 234.03 L 219.78 234.28 L 219.38 234.36 L 219.07 234.63 C 218.31 234.71 216.79 234.86 216.03 234.94 C 214.70 234.52 213.65 234.86 212.88 235.94 L 212.17 235.93 C 211.32 234.72 210.19 234.46 208.78 235.15 C 206.75 234.63 204.72 234.08 202.73 233.44 C 202.67 233.38 202.56 233.25 202.50 233.19 C 202.30 232.28 201.89 230.45 201.68 229.53 C 201.42 230.00 200.89 230.95 200.62 231.43 C 200.13 231.29 199.16 231.01 198.67 230.87 C 196.84 229.33 195.18 227.60 193.71 225.72 L 193.55 225.53 L 193.43 225.30 C 192.47 223.52 191.54 221.72 190.65 219.91 L 190.56 219.53 L 190.35 219.21 C 190.15 217.65 190.04 216.08 190.06 214.51 L 190.79 213.81 C 192.38 213.69 192.60 213.08 191.44 211.99 C 191.05 211.70 190.26 211.11 189.87 210.82 C 189.89 210.34 189.93 209.36 189.95 208.88 C 190.07 208.12 190.30 206.62 190.42 205.86 L 190.71 205.51 L 190.85 204.96 L 191.37 203.96 L 191.66 203.57 L 191.86 203.07 L 192.43 201.95 C 192.51 201.82 192.66 201.56 192.73 201.43 C 194.37 199.04 195.96 196.58 198.11 194.62 L 198.68 194.71 L 199.22 194.38 L 200.10 194.56 C 200.26 194.60 200.59 194.67 200.76 194.71 L 201.40 194.87 C 201.79 193.61 202.45 192.55 203.39 191.68 C 203.44 191.65 203.53 191.59 203.58 191.56 L 204.88 190.90 C 205.35 190.86 206.29 190.78 206.76 190.74 L 207.16 189.98 Z" />
<path fill="#aaaaaa" d=" M 127.84 192.18 C 128.01 192.02 128.34 191.69 128.50 191.53 C 128.34 191.69 128.01 192.02 127.84 192.18 Z" />
<path fill="#ffffff" d=" M 200.06 191.36 C 203.35 191.45 198.57 194.41 200.06 191.36 Z" />
<path fill="#ffffff" d=" M 203.39 191.68 C 203.44 191.65 203.53 191.59 203.58 191.56 C 203.53 191.59 203.44 191.65 203.39 191.68 Z" />
<path fill="#aaaaaa" d=" M 308.74 192.93 C 309.73 191.97 310.75 191.02 311.79 190.10 C 312.69 195.37 313.29 200.68 314.14 205.96 C 330.87 207.68 347.54 210.24 364.23 212.36 C 361.55 213.22 358.80 213.82 355.99 214.04 C 342.05 215.58 328.19 218.12 314.20 219.17 C 313.92 220.53 314.17 222.38 312.35 222.58 C 312.57 222.88 313.01 223.49 313.23 223.80 C 313.13 225.82 313.03 227.85 312.93 229.88 C 310.47 228.93 310.28 225.72 308.70 223.85 C 310.35 221.58 312.03 219.32 314.01 217.33 C 315.33 217.65 316.66 218.20 318.05 217.96 C 330.99 216.08 343.99 214.63 356.93 212.70 L 356.93 212.07 C 354.92 212.05 352.91 212.02 350.92 211.72 C 339.11 210.02 327.24 208.67 315.43 206.95 C 314.57 209.60 313.32 212.73 310.52 213.79 C 310.82 212.75 311.14 211.71 311.46 210.67 C 309.77 209.31 310.29 206.97 310.07 205.08 C 310.11 200.98 309.09 196.99 308.74 192.93 Z" />
<path fill="#aaaaaa" d=" M 126.96 193.04 C 127.18 192.82 127.62 192.39 127.84 192.18 C 127.62 192.39 127.18 192.82 126.96 193.04 Z" />
<path fill="#aaaaaa" d=" M 161.96 193.94 C 162.19 193.43 162.64 192.41 162.87 191.91 C 162.64 192.41 162.19 193.43 161.96 193.94 Z" />
<path fill="#ffffff" d=" M 276.92 195.99 C 277.29 194.34 276.84 192.12 278.60 191.15 C 280.16 197.30 281.21 203.55 282.01 209.84 C 279.47 209.89 276.82 210.31 274.36 209.49 C 274.99 204.95 276.54 200.57 276.92 195.99 Z" />
<path fill="#aaaaaa" d=" M 125.99 194.00 C 126.23 193.76 126.72 193.28 126.96 193.04 C 126.72 193.28 126.23 193.76 125.99 194.00 Z" />
<path fill="#aaaaaa" d=" M 125.00 195.00 C 125.25 194.75 125.74 194.25 125.99 194.00 C 125.74 194.25 125.25 194.75 125.00 195.00 Z" />
<path fill="#aaaaaa" d=" M 160.81 195.71 C 161.10 195.27 161.67 194.38 161.96 193.94 C 161.89 194.36 161.74 195.20 161.67 195.62 L 160.81 195.71 Z" />
<path fill="#ffffff" d=" M 198.53 194.21 L 199.22 194.38 L 198.68 194.71 L 198.11 194.62 L 198.53 194.21 Z" />
<path fill="#ffffff" d=" M 200.10 194.56 C 200.26 194.60 200.59 194.67 200.76 194.71 C 200.59 194.67 200.26 194.60 200.10 194.56 Z" />
<path fill="#aaaaaa" d=" M 124.00 196.00 C 124.25 195.75 124.75 195.25 125.00 195.00 C 124.75 195.25 124.25 195.75 124.00 196.00 Z" />
<path fill="#aaaaaa" d=" M 123.00 197.00 C 123.25 196.75 123.75 196.25 124.00 196.00 C 123.75 196.25 123.25 196.75 123.00 197.00 Z" />
<path fill="#aaaaaa" d=" M 159.87 197.01 C 160.10 196.69 160.57 196.04 160.81 195.71 L 161.26 196.40 C 161.02 196.73 160.56 197.38 160.33 197.71 L 159.87 197.01 Z" />
<path fill="#aaaaaa" d=" M 122.02 197.97 C 122.27 197.73 122.76 197.24 123.00 197.00 C 122.76 197.24 122.27 197.73 122.02 197.97 Z" />
<path fill="#ffffff" d=" M 237.34 196.66 C 247.47 202.46 255.16 212.49 258.31 223.71 C 259.82 221.87 261.58 220.19 264.04 219.84 C 263.67 222.19 262.96 224.58 261.21 226.29 C 261.11 225.30 260.93 223.33 260.83 222.35 C 257.43 223.77 259.59 227.35 259.90 229.97 C 259.21 232.25 258.20 235.21 255.36 235.32 C 256.36 235.79 257.38 236.23 258.42 236.63 C 273.92 241.69 289.30 247.09 304.78 252.21 C 305.03 254.62 305.36 257.03 305.77 259.43 C 303.50 260.20 301.26 261.05 299.06 261.99 C 286.57 254.80 274.08 247.59 261.60 240.38 C 259.34 239.17 257.24 237.47 254.72 236.85 C 254.92 238.29 256.60 238.68 257.61 239.42 C 270.74 246.98 283.87 254.56 296.99 262.13 C 299.66 263.68 298.87 267.36 299.18 269.95 C 297.30 271.33 294.98 272.01 292.77 272.64 C 281.38 262.88 270.25 252.80 258.90 242.99 C 256.48 240.75 253.86 238.74 251.70 236.25 C 252.33 236.43 253.60 236.81 254.23 236.99 C 254.21 236.53 254.17 235.60 254.14 235.14 L 255.81 234.74 C 254.46 233.13 252.56 234.33 251.16 235.10 C 251.48 234.63 252.14 233.68 252.46 233.21 C 249.96 232.54 247.50 231.72 245.07 230.83 C 245.21 222.82 244.62 214.69 241.87 207.11 C 240.69 203.49 238.80 200.17 237.34 196.66 Z" />
<path fill="#aaaaaa" d=" M 121.12 198.87 C 121.35 198.65 121.80 198.20 122.02 197.97 C 121.80 198.20 121.35 198.65 121.12 198.87 Z" />
<path fill="#aaaaaa" d=" M 121.12 198.87 C 120.34 199.65 120.34 199.65 121.12 198.87 Z" />
<path fill="#ffffff" d=" M 192.60 201.62 L 192.73 201.43 C 192.66 201.56 192.51 201.82 192.43 201.95 L 192.60 201.62 Z" />
<path fill="#ffffff" d=" M 232.28 201.44 C 232.38 201.60 232.58 201.94 232.69 202.11 L 232.46 201.71 L 232.28 201.44 Z" />
<path fill="#ffffff" d=" M 191.37 203.96 C 191.49 203.74 191.73 203.29 191.86 203.07 L 191.66 203.57 L 191.37 203.96 Z" />
<path fill="#ffffff" d=" M 233.21 203.10 C 233.30 203.29 233.48 203.68 233.57 203.87 C 233.48 203.68 233.30 203.29 233.21 203.10 Z" />
<path fill="#ffffff" d=" M 190.47 205.40 L 190.85 204.96 L 190.71 205.51 L 190.42 205.86 L 190.47 205.40 Z" />
<path fill="#ffffff" d=" M 233.93 204.67 C 234.20 205.29 234.75 206.53 235.03 207.15 C 234.75 206.53 234.20 205.29 233.93 204.67 Z" />
<path fill="#000000" d=" M 109.95 212.19 C 111.62 210.11 113.05 207.81 115.01 205.98 C 113.01 209.30 109.99 211.98 108.70 215.72 C 100.12 215.03 91.63 213.51 83.08 212.55 C 91.67 211.94 100.15 210.02 108.75 209.59 C 109.05 210.24 109.65 211.54 109.95 212.19 Z" />
<path fill="#ffffff" d=" M 189.87 210.82 C 188.51 210.13 188.54 209.48 189.95 208.88 C 189.93 209.36 189.89 210.34 189.87 210.82 Z" />
<path fill="#000000" d=" M 314.37 213.19 C 315.01 211.90 315.66 210.62 316.32 209.34 C 324.58 210.44 332.83 211.65 341.12 212.55 C 332.88 213.73 324.61 214.81 316.35 215.83 C 315.72 214.92 315.06 214.04 314.37 213.19 Z" />
<path fill="#ffffff" d=" M 188.12 212.25 C 191.07 210.50 188.39 215.54 188.12 212.25 Z" />
<path fill="#ffffff" d=" M 191.44 211.99 C 192.60 213.08 192.38 213.69 190.79 213.81 C 190.95 213.35 191.28 212.44 191.44 211.99 Z" />
<path fill="#000000" d=" M 232.96 213.92 C 233.04 213.90 233.22 213.85 233.30 213.83 C 233.22 213.85 233.04 213.90 232.96 213.92 Z" />
<path fill="#ffffff" d=" M 135.76 216.92 C 135.62 215.68 135.95 214.59 136.75 213.63 C 137.32 222.98 138.63 232.54 142.70 241.07 C 142.78 241.71 142.95 243.00 143.04 243.64 C 141.95 243.06 141.25 242.18 140.92 241.02 C 137.99 233.31 135.96 225.19 135.76 216.92 Z" />
<path fill="#aaaaaa" d=" M 310.75 218.13 C 310.64 216.54 312.12 214.00 313.84 214.15 C 313.87 215.80 312.33 217.68 310.75 218.13 Z" />
<path fill="#ffffff" d=" M 138.08 214.38 C 139.31 215.15 140.02 216.40 139.85 217.87 C 139.84 223.20 141.03 228.43 142.45 233.54 C 143.36 236.79 145.06 239.82 145.38 243.22 C 144.59 242.36 143.70 241.64 142.70 241.07 C 142.74 240.59 142.82 239.64 142.86 239.16 C 140.12 231.20 137.97 222.85 138.08 214.38 Z" />
<path fill="#ffffff" d=" M 140.71 215.00 L 141.90 215.00 C 142.25 222.42 143.57 229.83 146.19 236.80 C 146.78 238.22 147.07 239.77 146.58 241.27 C 142.82 233.06 140.83 224.03 140.71 215.00 Z" />
<path fill="#ffffff" d=" M 142.97 214.93 C 145.39 215.11 147.81 215.37 150.21 215.78 C 149.78 220.31 148.29 224.65 147.87 229.18 C 147.70 231.06 147.22 232.91 146.44 234.64 C 144.69 228.20 143.12 221.63 142.97 214.93 Z" />
<path fill="#ffffff" d=" M 288.27 214.70 C 289.33 216.25 289.05 218.21 288.96 219.98 C 288.22 226.07 287.03 232.12 284.95 237.90 C 284.60 238.98 283.91 239.78 282.88 240.30 C 283.83 236.50 285.28 232.84 286.04 228.99 C 287.24 224.30 287.20 219.41 288.27 214.70 Z" />
<path fill="#ffffff" d=" M 150.66 219.92 C 151.10 218.33 150.97 216.10 153.05 215.76 C 150.92 224.12 149.80 232.67 148.83 241.23 L 147.83 241.19 C 147.87 234.01 149.20 226.92 150.66 219.92 Z" />
<path fill="#ffffff" d=" M 154.25 215.95 C 154.61 215.99 155.31 216.08 155.67 216.13 C 153.69 223.60 152.25 231.25 151.78 238.97 C 151.76 240.08 151.20 240.84 150.10 241.23 C 150.66 232.69 152.05 224.22 154.25 215.95 Z" />
<path fill="#ffffff" d=" M 283.13 216.45 L 283.92 215.84 C 284.21 222.50 282.45 229.08 280.53 235.41 C 279.54 237.78 279.25 240.79 276.89 242.28 C 277.95 237.42 280.26 232.93 281.18 228.03 C 282.28 224.24 281.86 220.17 283.13 216.45 Z" />
<path fill="#ffffff" d=" M 285.07 215.86 C 285.53 216.01 286.47 216.30 286.94 216.45 C 285.73 225.04 284.61 233.95 280.56 241.74 L 279.34 242.49 C 282.23 233.88 285.27 225.07 285.07 215.86 Z" />
<path fill="#ffffff" d=" M 156.84 216.13 C 159.02 218.35 159.65 221.47 160.82 224.25 C 162.39 228.41 164.98 232.14 166.02 236.50 C 168.02 235.86 170.06 235.32 172.16 235.04 C 171.51 235.44 170.22 236.24 169.57 236.64 C 155.62 244.68 141.68 252.74 127.75 260.81 C 124.96 262.95 121.86 260.07 119.03 259.43 C 119.28 256.99 119.69 254.57 120.19 252.16 C 135.39 247.16 150.45 241.77 165.69 236.89 C 162.97 233.18 161.88 228.55 159.00 224.98 C 158.54 221.97 157.39 219.12 156.84 216.13 Z" />
<path fill="#ffffff" d=" M 159.38 216.92 C 161.84 216.99 164.31 217.07 166.77 217.18 C 170.27 222.25 174.45 226.82 179.27 230.65 C 175.48 232.65 171.26 233.59 167.24 235.00 C 164.23 229.15 161.26 223.24 159.38 216.92 Z" />
<path fill="#ffffff" d=" M 273.87 218.17 C 276.50 217.65 279.16 217.17 281.85 216.98 C 280.85 225.25 279.09 233.43 275.73 241.10 C 271.89 239.99 268.10 238.72 264.33 237.42 C 264.23 237.10 264.01 236.48 263.91 236.17 C 266.46 230.89 268.96 225.58 270.95 220.05 C 271.12 218.55 272.73 218.42 273.87 218.17 Z" />
<path fill="#ffffff" d=" M 234.06 220.10 C 234.26 219.53 234.67 218.38 234.88 217.80 C 234.67 218.38 234.26 219.53 234.06 220.10 Z" />
<path fill="#aaaaaa" d=" M 310.04 218.94 C 310.22 218.74 310.57 218.33 310.75 218.13 C 310.57 218.33 310.22 218.74 310.04 218.94 Z" />
<path fill="#ffffff" d=" M 190.35 219.21 L 190.56 219.53 L 190.65 219.91 L 190.38 219.60 L 190.35 219.21 Z" />
<path fill="#ffffff" d=" M 265.27 226.86 C 267.25 224.42 266.87 219.84 270.14 218.83 C 268.53 223.73 266.38 228.43 264.16 233.08 C 263.47 234.38 262.89 235.88 261.53 236.64 C 261.65 235.76 261.90 233.99 262.02 233.11 C 263.68 231.36 264.47 229.08 265.27 226.86 Z" />
<path fill="#aaaaaa" d=" M 310.04 218.94 C 309.32 219.68 309.32 219.68 310.04 218.94 Z" />
<path fill="#ffffff" d=" M 152.95 239.95 C 152.70 232.98 154.69 226.33 156.41 219.69 C 157.04 221.55 157.75 223.42 159.00 224.98 C 159.65 229.21 162.43 232.66 163.47 236.77 C 159.40 233.54 159.24 227.81 155.87 224.05 C 156.71 228.80 159.63 232.77 161.03 237.34 C 158.31 238.13 155.62 239.01 152.95 239.95 Z" />
<path fill="#ffffff" d=" M 265.51 220.37 C 265.91 220.21 266.70 219.88 267.09 219.72 C 266.47 222.09 264.65 224.32 265.27 226.86 C 263.01 228.13 262.35 230.73 262.02 233.11 C 260.91 234.07 259.91 235.16 258.90 236.23 C 260.33 230.69 263.71 225.82 265.51 220.37 Z" />
<path fill="#ffffff" d=" M 233.30 221.57 L 233.42 221.34 C 233.35 221.49 233.20 221.79 233.13 221.94 L 233.30 221.57 Z" />
<path fill="#aaaaaa" d=" M 305.74 224.19 C 305.75 222.74 307.10 220.54 308.67 220.68 C 308.72 222.24 307.25 223.91 305.74 224.19 Z" />
<path fill="#ffffff" d=" M 232.36 223.36 L 232.61 222.99 C 232.51 223.18 232.30 223.54 232.19 223.73 L 232.36 223.36 Z" />
<path fill="#aaaaaa" d=" M 304.93 225.06 C 305.13 224.84 305.53 224.41 305.74 224.19 C 305.53 224.41 305.13 224.84 304.93 225.06 Z" />
<path fill="#ffffff" d=" M 193.43 225.30 L 193.55 225.53 L 193.71 225.72 L 193.55 225.53 L 193.43 225.30 Z" />
<path fill="#aaaaaa" d=" M 303.99 226.02 C 304.22 225.78 304.69 225.30 304.93 225.06 C 304.69 225.30 304.22 225.78 303.99 226.02 Z" />
<path fill="#aaaaaa" d=" M 303.00 227.01 C 303.25 226.76 303.74 226.26 303.99 226.02 C 303.74 226.26 303.25 226.76 303.00 227.01 Z" />
<path fill="#aaaaaa" d=" M 262.02 233.11 C 262.35 230.73 263.01 228.13 265.27 226.86 C 264.47 229.08 263.68 231.36 262.02 233.11 Z" />
<path fill="#aaaaaa" d=" M 302.01 228.00 C 302.26 227.75 302.75 227.26 303.00 227.01 C 302.75 227.26 302.26 227.75 302.01 228.00 Z" />
<path fill="#aaaaaa" d=" M 301.00 229.00 C 301.26 228.75 301.76 228.25 302.01 228.00 C 301.76 228.25 301.26 228.75 301.00 229.00 Z" />
<path fill="#aaaaaa" d=" M 309.05 227.10 C 311.96 228.85 312.41 232.62 311.89 235.69 C 308.94 234.00 308.67 230.12 309.05 227.10 Z" />
<path fill="#aaaaaa" d=" M 300.00 230.00 C 300.25 229.75 300.75 229.25 301.00 229.00 C 300.75 229.25 300.25 229.75 300.00 230.00 Z" />
<path fill="#aaaaaa" d=" M 112.83 235.90 C 112.91 233.36 113.19 230.06 116.02 229.05 C 116.22 231.55 116.17 235.55 112.83 235.90 Z" />
<path fill="#ffffff" d=" M 222.37 230.00 C 222.77 230.00 223.56 230.00 223.96 230.00 L 223.07 232.21 C 224.53 231.43 226.00 230.64 227.45 229.84 C 226.37 231.02 225.34 232.24 224.33 233.48 C 223.17 233.64 222.01 233.83 220.85 234.03 C 221.67 232.82 222.05 231.41 222.37 230.00 Z" />
<path fill="#aaaaaa" d=" M 299.00 231.00 C 299.25 230.75 299.75 230.25 300.00 230.00 C 299.75 230.25 299.25 230.75 299.00 231.00 Z" />
<path fill="#aaaaaa" d=" M 298.01 232.00 C 298.26 231.75 298.75 231.25 299.00 231.00 C 298.75 231.25 298.26 231.75 298.01 232.00 Z" />
<path fill="#ffffff" d=" M 179.48 232.52 C 180.75 231.15 182.24 232.87 183.44 233.43 C 192.50 239.46 203.42 241.76 214.15 242.23 C 208.80 245.02 203.02 247.05 197.03 247.86 C 191.64 248.54 186.09 247.22 180.79 248.70 C 180.88 250.45 181.08 252.36 179.37 253.41 C 178.38 252.00 177.38 250.60 176.38 249.20 C 178.31 248.89 180.83 249.38 181.91 247.31 C 179.04 246.68 175.95 246.38 173.40 244.80 C 172.19 243.59 171.36 242.07 170.43 240.66 C 173.27 237.76 176.50 235.27 179.48 232.52 Z" />
<path fill="#ffffff" d=" M 244.20 231.86 C 247.71 234.32 250.74 237.39 253.89 240.28 C 253.76 241.94 252.52 243.25 251.71 244.64 C 248.77 248.72 245.93 252.90 242.42 256.52 C 241.40 254.13 240.00 251.86 239.33 249.34 C 241.70 243.78 244.21 238.02 244.20 231.86 Z" />
<path fill="#aaaaaa" d=" M 297.03 232.97 C 297.27 232.73 297.76 232.24 298.01 232.00 C 297.76 232.24 297.27 232.73 297.03 232.97 Z" />
<path fill="#ffffff" d=" M 202.50 233.19 C 202.56 233.25 202.67 233.38 202.73 233.44 L 202.55 233.38 L 202.50 233.19 Z" />
<path fill="#aaaaaa" d=" M 296.13 233.85 C 296.35 233.63 296.80 233.19 297.03 232.97 C 296.80 233.19 296.35 233.63 296.13 233.85 Z" />
<path fill="#ffffff" d=" M 219.38 234.36 L 219.78 234.28 L 219.48 234.59 L 219.07 234.63 L 219.38 234.36 Z" />
<path fill="#aaaaaa" d=" M 295.41 234.50 C 295.59 234.34 295.95 234.01 296.13 233.85 C 295.95 234.01 295.59 234.34 295.41 234.50 Z" />
<path fill="#aaaaaa" d=" M 308.48 234.38 C 309.94 233.83 311.19 236.45 310.57 237.66 C 309.02 238.24 307.71 235.63 308.48 234.38 Z" />
<path fill="#aaaaaa" d=" M 113.65 236.83 C 114.63 235.85 115.66 234.93 116.73 234.05 C 117.15 236.35 117.89 238.60 118.08 240.94 C 117.45 242.13 116.31 242.88 115.25 243.65 C 114.71 241.37 114.20 239.10 113.65 236.83 Z" />
<path fill="#ffffff" d=" M 208.78 235.15 C 210.19 234.46 211.32 234.72 212.17 235.93 C 210.88 236.38 209.75 236.12 208.78 235.15 Z" />
<path fill="#ffffff" d=" M 212.88 235.94 C 213.65 234.86 214.70 234.52 216.03 234.94 C 215.38 236.19 214.33 236.52 212.88 235.94 Z" />
<path fill="#000000" d=" M 289.88 239.13 C 291.46 237.29 293.39 235.81 295.41 234.50 C 293.73 236.22 291.91 237.82 289.88 239.13 Z" />
<path fill="#aaaaaa" d=" M 307.37 238.40 C 308.87 237.76 310.28 240.36 309.64 241.64 C 308.17 242.08 306.74 239.70 307.37 238.40 Z" />
<path fill="#aaaaaa" d=" M 306.33 240.35 C 307.38 241.13 308.42 241.95 309.42 242.82 C 308.84 244.78 308.28 246.74 307.72 248.71 C 306.74 247.86 305.48 247.20 304.97 245.95 C 305.11 244.02 305.82 242.20 306.33 240.35 Z" />
<path fill="#aaaaaa" d=" M 115.99 244.04 C 116.59 242.88 117.72 242.15 118.67 241.31 C 119.12 243.15 120.10 244.94 120.02 246.88 C 119.36 247.99 118.29 248.74 117.34 249.58 C 116.85 247.75 115.97 245.96 115.99 244.04 Z" />
<path fill="#ffffff" d=" M 169.07 241.17 C 171.25 243.58 172.77 246.49 174.76 249.05 C 176.43 251.33 178.49 253.41 179.42 256.14 C 178.72 255.75 177.30 254.98 176.60 254.60 C 176.49 254.49 176.29 254.28 176.19 254.17 C 174.88 251.36 173.31 248.57 170.75 246.70 C 170.64 246.61 170.43 246.43 170.32 246.34 C 170.02 245.85 169.41 244.86 169.11 244.36 C 169.10 243.57 169.08 241.97 169.07 241.17 Z" />
<path fill="#ffffff" d=" M 166.84 242.84 C 167.41 243.22 168.54 243.98 169.11 244.36 C 169.41 244.86 170.02 245.85 170.32 246.34 C 170.43 246.43 170.64 246.61 170.75 246.70 C 171.68 249.73 173.74 252.23 176.19 254.17 C 176.29 254.28 176.49 254.49 176.60 254.60 C 177.33 256.01 177.77 257.58 178.18 259.12 C 175.36 256.83 173.45 253.68 171.27 250.82 C 169.62 248.27 167.25 245.99 166.84 242.84 Z" />
<path fill="#ffffff" d=" M 253.75 247.72 C 255.04 245.89 256.49 244.18 258.16 242.69 C 256.67 247.55 252.83 251.09 250.35 255.41 C 249.16 256.45 247.87 257.35 246.62 258.30 C 246.90 257.65 247.47 256.34 247.76 255.68 C 247.83 255.60 247.97 255.43 248.04 255.34 C 249.39 254.25 250.94 253.01 251.02 251.12 C 252.22 250.48 252.86 249.22 253.51 248.09 C 253.57 248.00 253.69 247.81 253.75 247.72 Z" />
<path fill="#aaaaaa" d=" M 169.11 244.36 C 169.41 244.86 170.02 245.85 170.32 246.34 C 170.02 245.85 169.41 244.86 169.11 244.36 Z" />
<path fill="#ffffff" d=" M 259.04 244.73 C 261.38 246.65 263.68 248.63 265.92 250.67 C 262.10 252.25 258.36 254.05 254.47 255.46 C 253.14 256.15 251.71 255.71 250.35 255.41 C 254.53 253.17 256.17 248.29 259.04 244.73 Z" />
<path fill="#aaaaaa" d=" M 170.32 246.34 C 170.43 246.43 170.64 246.61 170.75 246.70 C 170.64 246.61 170.43 246.43 170.32 246.34 Z" />
<path fill="#aaaaaa" d=" M 170.75 246.70 C 173.31 248.57 174.88 251.36 176.19 254.17 C 173.74 252.23 171.68 249.73 170.75 246.70 Z" />
<path fill="#aaaaaa" d=" M 253.51 248.09 C 253.57 248.00 253.69 247.81 253.75 247.72 C 253.69 247.81 253.57 248.00 253.51 248.09 Z" />
<path fill="#000000" d=" M 251.02 251.12 C 249.98 249.74 252.04 247.71 253.51 248.09 C 252.86 249.22 252.22 250.48 251.02 251.12 Z" />
<path fill="#aaaaaa" d=" M 248.04 255.34 C 247.57 253.63 249.15 250.95 251.02 251.12 C 250.94 253.01 249.39 254.25 248.04 255.34 Z" />
<path fill="#ffffff" d=" M 249.32 258.37 C 255.34 256.64 260.99 253.93 266.80 251.65 C 267.75 252.52 268.70 253.39 269.67 254.26 C 261.66 257.94 253.52 262.21 244.66 263.17 C 247.25 260.82 251.14 260.86 254.23 259.38 C 257.61 257.81 261.80 257.38 264.39 254.53 C 264.82 254.56 265.66 254.60 266.09 254.63 L 266.49 253.80 C 266.56 253.67 266.68 253.41 266.74 253.28 L 266.39 253.41 L 266.49 253.80 C 265.97 253.98 264.92 254.35 264.39 254.53 C 257.41 256.45 250.95 260.27 243.67 261.05 C 244.97 259.18 247.35 259.05 249.32 258.37 Z" />
<path fill="#aaaaaa" d=" M 266.39 253.41 L 266.74 253.28 C 266.68 253.41 266.56 253.67 266.49 253.80 L 266.39 253.41 Z" />
<path fill="#aaaaaa" d=" M 176.19 254.17 C 176.29 254.28 176.49 254.49 176.60 254.60 C 176.49 254.49 176.29 254.28 176.19 254.17 Z" />
<path fill="#aaaaaa" d=" M 264.39 254.53 C 264.92 254.35 265.97 253.98 266.49 253.80 L 266.09 254.63 C 265.66 254.60 264.82 254.56 264.39 254.53 Z" />
<path fill="#000000" d=" M 247.76 255.68 C 247.83 255.60 247.97 255.43 248.04 255.34 C 247.97 255.43 247.83 255.60 247.76 255.68 Z" />
<path fill="#ffffff" d=" M 262.69 260.72 C 265.55 260.64 266.44 256.71 269.13 255.78 C 268.96 256.47 268.61 257.86 268.43 258.56 C 268.31 258.68 268.06 258.92 267.94 259.04 C 267.79 259.19 267.48 259.50 267.33 259.65 C 264.16 262.16 260.98 264.86 258.80 268.31 C 258.65 268.40 258.35 268.59 258.20 268.69 C 256.45 268.80 254.59 269.68 254.40 271.61 C 252.84 272.23 251.31 272.89 249.75 273.50 C 253.20 268.81 259.26 266.59 262.76 261.79 L 262.69 260.72 Z" />
<path fill="#ffffff" d=" M 268.43 258.56 C 269.53 257.53 270.69 256.57 271.83 255.58 C 271.95 256.15 272.19 257.28 272.31 257.85 C 269.90 258.85 268.67 261.20 267.55 263.40 C 267.43 263.53 267.17 263.79 267.05 263.93 C 266.84 264.14 266.43 264.56 266.23 264.77 C 265.91 265.08 265.28 265.71 264.96 266.03 C 264.72 266.27 264.24 266.73 264.01 266.97 C 263.75 267.23 263.24 267.74 262.99 267.99 C 262.77 268.12 262.34 268.38 262.12 268.50 C 260.30 269.18 258.40 270.16 257.81 272.18 C 257.68 272.29 257.42 272.51 257.29 272.62 C 255.86 272.32 254.69 273.32 254.23 274.58 C 253.11 275.11 251.96 275.58 250.79 275.99 C 251.06 273.85 253.47 273.35 254.40 271.61 C 256.26 271.77 257.97 270.62 258.20 268.69 C 258.35 268.59 258.65 268.40 258.80 268.31 C 261.73 266.71 263.80 263.96 266.64 262.22 C 266.81 261.58 267.16 260.29 267.33 259.65 C 267.48 259.50 267.79 259.19 267.94 259.04 C 268.06 258.92 268.31 258.68 268.43 258.56 Z" />
<path fill="#aaaaaa" d=" M 155.42 257.10 C 155.47 257.26 155.58 257.57 155.64 257.72 C 155.58 257.57 155.47 257.26 155.42 257.10 Z" />
<path fill="#aaaaaa" d=" M 155.64 257.72 C 158.18 259.12 160.21 261.46 161.35 264.12 C 158.75 262.77 156.84 260.35 155.64 257.72 Z" />
<path fill="#aaaaaa" d=" M 267.94 259.04 C 268.06 258.92 268.31 258.68 268.43 258.56 C 268.31 258.68 268.06 258.92 267.94 259.04 Z" />
<path fill="#aaaaaa" d=" M 267.55 263.40 C 268.67 261.20 269.90 258.85 272.31 257.85 C 271.23 260.10 269.71 262.08 267.55 263.40 Z" />
<path fill="#ffffff" d=" M 272.31 257.85 C 272.79 257.75 273.77 257.54 274.25 257.44 C 272.95 260.82 270.07 263.15 267.74 265.81 C 262.96 270.53 257.98 275.41 251.77 278.18 C 252.47 276.90 253.36 275.74 254.23 274.58 C 255.66 275.26 257.17 274.11 257.29 272.62 C 257.42 272.51 257.68 272.29 257.81 272.18 C 259.90 271.98 261.69 270.61 262.12 268.50 C 262.34 268.38 262.77 268.12 262.99 267.99 C 263.24 267.74 263.75 267.23 264.01 266.97 C 264.24 266.73 264.72 266.27 264.96 266.03 C 265.28 265.71 265.91 265.08 266.23 264.77 C 266.43 264.56 266.84 264.14 267.05 263.93 C 267.17 263.79 267.43 263.53 267.55 263.40 C 269.71 262.08 271.23 260.10 272.31 257.85 Z" />
<path fill="#ffffff" d=" M 225.48 262.01 C 226.64 260.69 227.82 259.39 229.04 258.13 C 229.99 259.22 230.86 260.41 231.44 261.75 C 229.45 261.88 227.47 261.96 225.48 262.01 Z" />
<path fill="#ffffff" d=" M 246.08 264.36 C 252.20 263.18 257.84 260.43 263.79 258.65 C 263.51 259.17 262.97 260.20 262.69 260.72 C 258.56 264.29 254.57 268.11 249.86 270.93 C 247.28 270.12 247.31 266.47 246.08 264.36 Z" />
<path fill="#aaaaaa" d=" M 267.33 259.65 C 267.48 259.50 267.79 259.19 267.94 259.04 C 267.79 259.19 267.48 259.50 267.33 259.65 Z" />
<path fill="#ffffff" d=" M 118.42 260.28 C 120.49 261.16 122.59 261.94 124.75 262.59 C 125.30 265.29 124.58 267.96 123.62 270.48 C 111.69 274.73 100.24 280.25 88.28 284.39 C 89.11 283.39 90.04 282.47 91.04 281.65 C 100.19 274.55 109.41 267.54 118.42 260.28 Z" />
<path fill="#ffffff" d=" M 152.67 259.86 C 153.34 260.34 154.66 261.29 155.33 261.77 C 155.47 261.89 155.75 262.13 155.89 262.25 C 156.10 262.49 156.51 262.97 156.72 263.21 C 156.90 263.43 157.26 263.86 157.44 264.07 C 158.32 265.49 159.50 266.67 160.92 267.55 C 161.14 267.73 161.57 268.10 161.79 268.28 C 162.03 268.49 162.52 268.92 162.76 269.13 L 163.03 269.76 L 163.62 270.02 C 164.64 271.36 165.95 272.42 167.46 273.18 C 169.33 274.48 171.25 275.85 172.33 277.92 C 167.70 275.70 163.86 272.23 160.04 268.87 C 157.18 266.24 154.23 263.50 152.67 259.86 Z" />
<path fill="#aaaaaa" d=" M 258.80 268.31 C 260.98 264.86 264.16 262.16 267.33 259.65 C 267.16 260.29 266.81 261.58 266.64 262.22 C 263.80 263.96 261.73 266.71 258.80 268.31 Z" />
<path fill="#aaaaaa" d=" M 155.33 261.77 C 155.47 261.89 155.75 262.13 155.89 262.25 C 155.75 262.13 155.47 261.89 155.33 261.77 Z" />
<path fill="#ffffff" d=" M 299.92 262.97 C 302.38 261.94 305.80 259.27 308.16 261.74 C 315.18 267.38 322.39 272.81 329.46 278.40 C 331.94 280.35 334.66 282.05 336.71 284.50 C 325.06 280.31 313.72 275.27 302.20 270.73 C 299.10 269.59 300.19 265.52 299.92 262.97 Z" />
<path fill="#aaaaaa" d=" M 155.89 262.25 C 156.10 262.49 156.51 262.97 156.72 263.21 C 156.51 262.97 156.10 262.49 155.89 262.25 Z" />
<path fill="#ffffff" d=" M 187.67 262.04 C 195.13 262.34 202.48 264.32 210.00 264.02 C 217.67 264.25 225.34 263.59 232.90 262.29 C 233.04 262.68 233.31 263.44 233.44 263.82 C 221.04 265.63 208.39 265.97 195.94 264.41 C 193.16 263.77 189.88 264.16 187.67 262.04 Z" />
<path fill="#aaaaaa" d=" M 156.72 263.21 C 156.90 263.43 157.26 263.86 157.44 264.07 C 157.26 263.86 156.90 263.43 156.72 263.21 Z" />
<path fill="#aaaaaa" d=" M 267.05 263.93 C 267.17 263.79 267.43 263.53 267.55 263.40 C 267.43 263.53 267.17 263.79 267.05 263.93 Z" />
<path fill="#aaaaaa" d=" M 157.44 264.07 C 159.26 263.66 161.35 265.73 160.92 267.55 C 159.50 266.67 158.32 265.49 157.44 264.07 Z" />
<path fill="#000000" d=" M 161.35 264.12 C 163.43 265.47 165.27 267.17 166.88 269.05 C 164.85 267.63 163.01 265.95 161.35 264.12 Z" />
<path fill="#aaaaaa" d=" M 266.23 264.77 C 266.43 264.56 266.84 264.14 267.05 263.93 C 266.84 264.14 266.43 264.56 266.23 264.77 Z" />
<path fill="#ffffff" d=" M 190.35 265.05 C 194.29 264.75 198.08 266.16 202.02 266.03 C 206.63 265.86 211.22 267.08 215.83 266.45 C 220.53 265.75 225.33 266.41 229.97 265.27 C 231.83 265.18 234.19 264.16 235.74 265.65 C 223.39 268.19 210.57 268.86 198.07 267.09 C 195.38 266.90 192.49 266.95 190.35 265.05 Z" />
<path fill="#aaaaaa" d=" M 264.96 266.03 C 265.28 265.71 265.91 265.08 266.23 264.77 C 265.91 265.08 265.28 265.71 264.96 266.03 Z" />
<path fill="#aaaaaa" d=" M 264.01 266.97 C 264.24 266.73 264.72 266.27 264.96 266.03 C 264.72 266.27 264.24 266.73 264.01 266.97 Z" />
<path fill="#aaaaaa" d=" M 160.92 267.55 C 161.14 267.73 161.57 268.10 161.79 268.28 C 161.57 268.10 161.14 267.73 160.92 267.55 Z" />
<path fill="#ffffff" d=" M 225.95 268.27 C 229.56 268.19 233.11 266.87 236.70 267.16 C 239.08 269.46 241.21 272.03 243.22 274.67 C 233.89 279.33 223.42 282.08 212.98 281.91 C 206.02 278.20 199.49 273.45 193.77 268.00 C 204.46 268.75 215.26 269.86 225.95 268.27 Z" />
<path fill="#aaaaaa" d=" M 262.99 267.99 C 263.24 267.74 263.75 267.23 264.01 266.97 C 263.75 267.23 263.24 267.74 262.99 267.99 Z" />
<path fill="#aaaaaa" d=" M 161.79 268.28 C 162.03 268.49 162.52 268.92 162.76 269.13 C 162.52 268.92 162.03 268.49 161.79 268.28 Z" />
<path fill="#aaaaaa" d=" M 189.49 268.49 C 189.65 268.64 189.97 268.96 190.13 269.12 C 189.97 268.96 189.65 268.64 189.49 268.49 Z" />
<path fill="#000000" d=" M 258.20 268.69 C 258.35 268.59 258.65 268.40 258.80 268.31 C 258.65 268.40 258.35 268.59 258.20 268.69 Z" />
<path fill="#aaaaaa" d=" M 262.12 268.50 C 262.34 268.38 262.77 268.12 262.99 267.99 C 262.77 268.12 262.34 268.38 262.12 268.50 Z" />
<path fill="#aaaaaa" d=" M 162.76 269.13 C 162.97 269.35 163.40 269.80 163.62 270.02 L 163.03 269.76 L 162.76 269.13 Z" />
<path fill="#ffffff" d=" M 179.86 273.43 C 181.34 271.63 182.80 269.80 184.25 267.98 C 188.65 272.23 193.60 275.86 198.00 280.08 C 193.86 280.02 190.04 278.30 186.24 276.84 C 184.03 275.88 181.61 275.16 179.86 273.43 Z" />
<path fill="#aaaaaa" d=" M 190.13 269.12 C 190.31 269.30 190.69 269.67 190.88 269.85 C 190.69 269.67 190.31 269.30 190.13 269.12 Z" />
<path fill="#aaaaaa" d=" M 254.40 271.61 C 254.59 269.68 256.45 268.80 258.20 268.69 C 257.97 270.62 256.26 271.77 254.40 271.61 Z" />
<path fill="#aaaaaa" d=" M 257.81 272.18 C 258.40 270.16 260.30 269.18 262.12 268.50 C 261.69 270.61 259.90 271.98 257.81 272.18 Z" />
<path fill="#aaaaaa" d=" M 163.62 270.02 C 165.29 269.34 168.49 271.26 167.46 273.18 C 165.95 272.42 164.64 271.36 163.62 270.02 Z" />
<path fill="#aaaaaa" d=" M 190.88 269.85 C 191.03 270.00 191.34 270.32 191.50 270.47 C 191.34 270.32 191.03 270.00 190.88 269.85 Z" />
<path fill="#aaaaaa" d=" M 191.50 270.47 C 193.86 271.41 196.19 272.89 197.31 275.27 C 194.89 274.38 192.82 272.69 191.50 270.47 Z" />
<path fill="#aaaaaa" d=" M 257.29 272.62 C 257.42 272.51 257.68 272.29 257.81 272.18 C 257.68 272.29 257.42 272.51 257.29 272.62 Z" />
<path fill="#aaaaaa" d=" M 254.23 274.58 C 254.69 273.32 255.86 272.32 257.29 272.62 C 257.17 274.11 255.66 275.26 254.23 274.58 Z" />
<path fill="#ffffff" d=" M 178.86 274.85 C 185.05 277.72 191.40 280.39 198.15 281.66 C 200.10 282.10 202.53 281.96 203.65 283.98 C 195.75 283.05 188.23 280.43 180.86 277.55 C 180.34 277.49 179.28 277.36 178.75 277.29 C 178.78 276.68 178.83 275.46 178.86 274.85 Z" />
<path fill="#aaaaaa" d=" M 197.31 275.27 C 198.82 274.71 200.94 276.48 200.98 278.01 C 199.56 278.14 197.08 276.85 197.31 275.27 Z" />
<path fill="#ffffff" d=" M 240.92 277.01 C 242.27 276.28 243.76 275.96 245.30 276.00 C 240.54 279.62 234.47 281.00 228.80 282.55 C 224.47 283.67 220.02 284.24 215.56 284.03 L 215.57 283.08 C 224.28 282.53 232.99 280.72 240.92 277.01 Z" />
<path fill="#ffffff" d=" M 176.74 276.93 C 177.24 277.02 178.25 277.20 178.75 277.29 C 179.12 277.49 179.85 277.87 180.22 278.07 L 180.86 277.55 C 181.17 277.91 181.77 278.62 182.07 278.97 C 188.04 281.83 194.49 283.65 201.03 284.66 C 203.64 285.15 206.70 284.78 208.65 286.98 C 198.34 286.29 188.11 283.72 178.88 279.01 C 177.96 278.54 177.25 277.85 176.74 276.93 Z" />
<path fill="#aaaaaa" d=" M 178.75 277.29 C 179.28 277.36 180.34 277.49 180.86 277.55 L 180.22 278.07 C 179.85 277.87 179.12 277.49 178.75 277.29 Z" />
<path fill="#aaaaaa" d=" M 200.98 278.01 C 202.25 277.74 204.04 278.77 204.12 280.14 C 202.86 280.43 200.97 279.40 200.98 278.01 Z" />
<path fill="#000000" d=" M 244.88 280.04 C 245.56 279.41 245.56 279.41 244.88 280.04 Z" />
<path fill="#aaaaaa" d=" M 204.12 280.14 C 204.33 280.30 204.74 280.61 204.94 280.76 C 204.74 280.61 204.33 280.30 204.12 280.14 Z" />
<path fill="#aaaaaa" d=" M 243.21 280.22 C 243.63 280.17 244.46 280.08 244.88 280.04 L 244.73 280.79 C 244.30 280.84 243.45 280.93 243.02 280.98 L 243.21 280.22 Z" />
<path fill="#aaaaaa" d=" M 204.94 280.76 C 206.72 280.47 208.14 282.09 209.56 282.94 C 210.88 284.25 208.29 284.14 207.77 283.43 C 206.76 282.70 205.08 282.18 204.94 280.76 Z" />
<path fill="#aaaaaa" d=" M 243.02 280.98 C 243.31 283.35 239.49 281.33 242.18 280.68 L 243.02 280.98 Z" />
<path fill="#aaaaaa" d=" M 182.96 283.85 C 188.27 285.43 193.46 287.52 198.99 288.31 C 203.54 289.40 208.39 288.54 212.82 290.20 C 212.66 289.62 212.33 288.45 212.17 287.87 C 212.71 288.18 213.78 288.80 214.32 289.11 C 214.46 289.10 214.73 289.07 214.87 289.05 C 222.48 292.58 230.08 296.57 238.40 298.08 C 237.42 298.70 236.40 300.08 235.12 298.78 C 229.80 296.93 224.53 294.90 219.43 292.49 C 218.09 291.71 216.53 291.75 215.04 291.88 C 209.57 292.40 204.17 291.05 198.71 290.89 C 198.69 290.53 198.67 289.81 198.65 289.45 C 197.46 289.88 196.18 290.36 194.92 289.90 C 190.23 288.96 185.80 287.14 181.27 285.69 C 181.69 285.23 182.54 284.31 182.96 283.85 Z" />
<path fill="#22b14c" d=" M 214.32 289.11 L 214.87 289.05 C 214.73 289.07 214.46 289.10 214.32 289.11 Z" />
<path fill="#22b14c" d=" M 154.67 292.43 C 154.68 292.36 154.71 292.22 154.72 292.15 L 154.78 292.54 L 154.67 292.43 Z" />
<path fill="#22b14c" d=" M 155.87 294.69 C 155.91 294.57 156.00 294.33 156.04 294.20 L 155.87 294.69 Z" />
<path fill="#000000" d=" M 158.10 293.98 C 159.61 296.73 160.41 299.81 162.03 302.52 C 162.39 303.15 162.76 303.79 163.13 304.44 C 158.10 310.95 153.06 317.47 148.09 324.03 C 151.37 316.36 154.16 308.41 157.87 300.97 C 158.58 300.94 160.01 300.89 160.72 300.87 C 159.74 298.61 158.68 296.37 158.10 293.98 Z" />
<path fill="#000000" d=" M 253.75 300.55 C 258.25 299.43 262.58 302.27 267.08 300.85 C 270.40 308.54 273.34 316.38 276.82 323.99 C 271.54 317.52 266.55 310.80 261.48 304.17 C 264.20 302.34 261.83 301.04 260.01 300.97 C 257.94 300.58 255.83 300.71 253.75 300.55 Z" />
<path fill="#aaaaaa" d=" M 178.39 305.21 C 181.58 304.79 178.10 308.98 176.42 307.60 C 175.91 306.46 177.53 305.58 178.39 305.21 Z" />
<path fill="#aaaaaa" d=" M 181.37 306.16 C 184.52 305.84 181.07 309.84 179.44 308.64 C 178.93 307.48 180.42 306.46 181.37 306.16 Z" />
<path fill="#aaaaaa" d=" M 181.28 309.71 C 182.87 305.25 187.61 307.71 190.88 308.23 C 189.29 312.58 184.48 310.56 181.28 309.71 Z" />
<path fill="#aaaaaa" d=" M 189.05 312.12 C 189.67 308.82 193.36 308.75 195.98 308.98 C 194.98 311.87 191.61 312.10 189.05 312.12 Z" />
<path fill="#aaaaaa" d=" M 228.23 309.22 C 229.85 309.07 231.48 308.92 233.12 308.77 C 234.19 309.74 235.22 310.76 235.99 312.00 C 233.01 312.63 230.22 311.37 228.23 309.22 Z" />
<path fill="#aaaaaa" d=" M 197.01 309.81 C 199.84 310.19 203.18 309.35 205.54 311.34 C 208.27 310.34 211.15 311.22 213.97 310.95 C 218.41 310.71 222.81 309.85 227.26 309.87 C 229.03 310.31 230.38 311.60 231.76 312.72 C 225.99 313.38 220.25 314.39 214.41 314.11 C 215.76 316.28 217.04 318.52 218.81 320.39 C 220.60 321.88 222.98 322.38 225.12 323.21 C 225.16 325.90 224.86 328.58 224.38 331.22 C 220.72 357.01 217.13 382.80 213.48 408.58 C 213.17 410.51 213.16 412.53 212.32 414.33 C 207.55 384.12 203.63 353.75 199.34 323.46 C 201.44 322.57 203.64 321.89 205.60 320.73 C 207.56 318.85 208.88 316.45 210.21 314.12 C 204.51 314.37 198.91 313.35 193.27 312.78 C 194.38 311.63 195.66 310.67 197.01 309.81 Z" />
<path fill="#ffffff" d=" M 207.14 325.13 C 205.87 320.46 209.97 317.08 212.53 313.77 C 214.26 316.56 216.82 318.92 217.99 322.01 C 216.25 334.94 214.14 347.83 212.65 360.80 C 210.04 349.06 209.22 336.98 207.14 325.13 Z" />
<path fill="#ffffff" d=" M 200.94 324.17 C 202.41 323.18 204.15 322.71 205.79 322.07 C 207.33 334.76 209.34 347.38 211.00 360.06 C 211.32 362.53 211.55 365.07 212.65 367.34 C 214.93 352.25 216.81 337.10 219.15 322.02 C 220.77 322.74 222.39 323.45 224.02 324.15 C 223.98 324.89 223.90 326.36 223.86 327.10 C 220.16 353.90 216.16 380.67 212.64 407.50 C 211.52 404.05 211.20 400.43 210.73 396.85 C 207.63 375.25 204.67 353.62 201.57 332.01 C 201.26 329.42 200.51 326.77 200.94 324.17 Z" />
</svg>
